<svg width="242" height="257" viewBox="0 0 242 257" fill="none" xmlns="http://www.w3.org/2000/svg">
<path d="M142.344 112.86C142.344 112.755 142.265 112.65 142.12 112.568C141.962 112.479 141.749 112.426 141.519 112.426C141.289 112.426 141.065 112.479 140.907 112.571C140.762 112.653 140.684 112.758 140.684 112.867C140.684 112.972 140.762 113.077 140.907 113.156C141.065 113.245 141.279 113.294 141.509 113.294C141.739 113.294 141.962 113.242 142.12 113.15C142.262 113.071 142.344 112.965 142.344 112.86Z" fill="url(#paint0_linear)"/>
<path d="M145.82 137.914C145.82 137.661 145.702 137.507 145.508 137.507C145.429 137.507 145.34 137.533 145.248 137.586C144.916 137.776 144.646 138.243 144.646 138.628C144.646 138.881 144.765 139.036 144.959 139.036C145.038 139.036 145.126 139.009 145.219 138.957C145.551 138.763 145.82 138.296 145.82 137.914Z" fill="url(#paint1_linear)"/>
<path d="M148.631 143.871C148.631 144.108 148.743 144.256 148.923 144.256C148.999 144.256 149.081 144.23 149.167 144.18C149.479 144 149.732 143.559 149.732 143.201C149.732 142.964 149.62 142.816 149.44 142.816C149.364 142.816 149.282 142.842 149.196 142.892C148.884 143.069 148.631 143.51 148.631 143.871Z" fill="url(#paint2_linear)"/>
<path d="M137.209 110.864C137.209 110.97 137.288 111.075 137.433 111.154C137.59 111.243 137.804 111.292 138.034 111.292C138.264 111.292 138.488 111.239 138.646 111.147C138.79 111.065 138.869 110.96 138.869 110.855C138.869 110.749 138.79 110.644 138.646 110.562C138.488 110.473 138.274 110.421 138.044 110.421C137.814 110.421 137.59 110.473 137.433 110.565C137.288 110.651 137.209 110.756 137.209 110.864Z" fill="url(#paint3_linear)"/>
<path d="M122.447 92.3752V105.184L141.791 116.266V141.8L138.576 143.543V148.435L128.615 162.002L151.069 149.151L151.046 110.97L124.877 95.8272V103.033L137.363 110.197C137.55 110.128 137.767 110.089 137.997 110.089C138.306 110.089 138.599 110.158 138.816 110.283C139.056 110.421 139.191 110.611 139.191 110.818C139.191 111.026 139.059 111.22 138.816 111.358C138.592 111.486 138.297 111.558 137.981 111.558C137.672 111.558 137.383 111.489 137.162 111.364C136.922 111.229 136.788 111.039 136.788 110.832C136.788 110.68 136.857 110.539 136.988 110.417L124.499 103.254V95.1697L151.424 110.753L151.407 148.957L152.874 148.119V109.921L122.447 92.3752ZM134.181 157.752L140.187 149.638V144.697L143.317 142.905V127.158L143.695 126.931V143.125L140.565 144.917V149.763L135.604 156.463L139.641 154.063L145.066 146.738V139.302C145.006 139.318 144.947 139.328 144.891 139.328C144.589 139.328 144.395 139.082 144.395 138.703C144.395 138.168 144.773 137.517 145.233 137.25C145.368 137.171 145.496 137.135 145.618 137.135C145.92 137.135 146.114 137.382 146.114 137.76C146.114 138.227 145.825 138.786 145.444 139.095V146.863L139.901 154.352L134.181 157.752ZM149.004 149.04L143.596 152.301V151.86L148.626 148.826V146.962L147.304 146.199V129.949L144.553 128.348L144.543 114.714L142.242 113.396C142.028 113.498 141.768 113.557 141.489 113.557C141.18 113.557 140.89 113.488 140.67 113.363C140.43 113.228 140.295 113.038 140.295 112.83C140.295 112.62 140.427 112.429 140.67 112.288C140.894 112.16 141.19 112.087 141.505 112.087C141.814 112.087 142.107 112.156 142.324 112.281C142.564 112.419 142.699 112.61 142.699 112.817C142.699 112.936 142.656 113.047 142.574 113.149L144.921 114.494L144.931 128.127L147.683 129.728V145.979L149.004 146.742V149.04ZM128.394 102.603L128.398 102.162L147.341 113.097V126.359L148.975 127.223L148.988 112.15L128.394 100.173L128.388 99.7328L149.366 111.93L149.353 142.392C149.412 142.376 149.471 142.366 149.527 142.366C149.829 142.366 150.023 142.612 150.023 142.99C150.023 143.523 149.645 144.177 149.185 144.444C149.05 144.522 148.922 144.559 148.8 144.559C148.498 144.559 148.304 144.312 148.304 143.934C148.304 143.467 148.593 142.908 148.975 142.599V127.647L146.959 126.582V113.314L128.394 102.603Z" fill="url(#paint4_linear)"/>
<path d="M83.5625 112.827C83.5625 112.722 83.6414 112.617 83.7861 112.534C83.9439 112.446 84.1575 112.393 84.3877 112.393C84.6178 112.393 84.8414 112.446 84.9992 112.538C85.1438 112.62 85.2227 112.725 85.2227 112.834C85.2227 112.939 85.1438 113.044 84.9992 113.123C84.8414 113.212 84.6277 113.261 84.3975 113.261C84.1674 113.261 83.9439 113.208 83.7861 113.116C83.6414 113.037 83.5625 112.936 83.5625 112.827Z" fill="url(#paint5_linear)"/>
<path d="M80.0508 137.914C80.0508 137.661 80.1691 137.507 80.3631 137.507C80.442 137.507 80.5308 137.533 80.6228 137.585C80.9549 137.776 81.2244 138.243 81.2244 138.628C81.2244 138.881 81.1061 139.035 80.9121 139.035C80.8332 139.035 80.7445 139.009 80.6524 138.956C80.3204 138.762 80.0508 138.296 80.0508 137.914Z" fill="url(#paint6_linear)"/>
<path d="M77.3689 143.871C77.3689 144.108 77.2571 144.256 77.0763 144.256C77.0007 144.256 76.9185 144.23 76.833 144.18C76.5207 143.999 76.2676 143.559 76.2676 143.201C76.2676 142.964 76.3794 142.816 76.5602 142.816C76.6358 142.816 76.718 142.842 76.8034 142.892C77.1158 143.069 77.3689 143.51 77.3689 143.871Z" fill="url(#paint7_linear)"/>
<path d="M88.6954 110.864C88.6954 110.969 88.6165 111.075 88.4718 111.154C88.314 111.242 88.1003 111.292 87.8702 111.292C87.6401 111.292 87.4165 111.239 87.2587 111.147C87.1141 111.065 87.0352 110.96 87.0352 110.854C87.0352 110.749 87.1141 110.644 87.2587 110.562C87.4165 110.473 87.6302 110.42 87.8603 110.42C88.0905 110.42 88.314 110.473 88.4718 110.565C88.6165 110.651 88.6954 110.756 88.6954 110.864Z" fill="url(#paint8_linear)"/>
<path d="M73 109.921V148.115L74.4498 148.809V110.752L101.375 95.1694V103.25L88.8855 110.414C89.0137 110.535 89.086 110.677 89.086 110.828C89.086 111.035 88.9512 111.226 88.7112 111.361C88.491 111.486 88.2017 111.555 87.8926 111.555C87.577 111.555 87.2811 111.482 87.0576 111.354C86.8176 111.216 86.6828 111.025 86.6828 110.815C86.6828 110.608 86.8143 110.417 87.0576 110.279C87.2779 110.154 87.5672 110.085 87.8762 110.085C88.103 110.085 88.32 110.124 88.5107 110.194L100.997 103.03V95.8269L74.8279 110.969V149.026L97.3049 162.298L87.2976 148.434V143.542L84.0823 141.8V116.269L103.426 105.187V92.1284L73 109.921ZM85.9727 154.349L80.4299 146.86V139.091C80.0485 138.779 79.7592 138.223 79.7592 137.756C79.7592 137.378 79.9532 137.132 80.2556 137.132C80.3773 137.132 80.5055 137.171 80.6403 137.247C81.1038 137.513 81.4786 138.167 81.4786 138.7C81.4786 139.078 81.2846 139.325 80.9822 139.325C80.9263 139.325 80.8671 139.315 80.8079 139.298V146.735L86.2324 154.059L90.2695 156.459L85.3086 149.759V144.913L82.1789 143.122V126.927L82.5569 127.154V142.901L85.6867 144.693V149.631L91.693 157.745L85.9727 154.349ZM76.8695 146.741L78.191 145.979V129.728L80.9427 128.127L80.9526 114.494L83.2999 113.149C83.2177 113.047 83.175 112.935 83.175 112.817C83.175 112.61 83.3065 112.419 83.5498 112.281C83.77 112.156 84.0593 112.087 84.3684 112.087C84.684 112.087 84.9798 112.159 85.2034 112.288C85.4467 112.426 85.5782 112.62 85.5782 112.83C85.5782 113.037 85.4434 113.228 85.2034 113.363C84.9831 113.488 84.6938 113.557 84.3848 113.557C84.1054 113.557 83.8456 113.498 83.632 113.396L81.3307 114.714L81.3208 128.347L78.5691 129.948V146.199L77.2475 146.962V148.826L82.2775 151.86V152.301L76.8695 149.039V146.741ZM78.911 113.313V126.582L76.8958 127.647V142.599C77.2771 142.911 77.5664 143.467 77.5664 143.934C77.5664 144.312 77.3724 144.558 77.07 144.558C76.9484 144.558 76.8201 144.519 76.6853 144.443C76.2218 144.177 75.847 143.523 75.847 142.99C75.847 142.612 76.041 142.366 76.3434 142.366C76.3993 142.366 76.4585 142.375 76.5177 142.392L76.5045 111.929L97.4824 99.7325L97.4758 100.173L76.8859 112.15L76.899 127.223L78.533 126.358V113.096L97.4758 102.162L97.4791 102.603L78.911 113.313Z" fill="url(#paint9_linear)"/>
<path d="M108.305 157.456C108.384 157.502 108.463 157.525 108.536 157.525C108.542 157.525 108.549 157.525 108.552 157.521L108.565 157.538L108.641 157.502C108.647 157.498 108.654 157.495 108.66 157.492L108.674 157.485C108.762 157.429 108.815 157.318 108.815 157.163C108.815 156.824 108.575 156.41 108.282 156.239C108.204 156.193 108.125 156.17 108.052 156.17C108.006 156.17 107.967 156.18 107.934 156.196L107.786 156.282L107.799 156.374C107.786 156.42 107.779 156.473 107.779 156.529C107.773 156.874 108.013 157.288 108.305 157.456Z" fill="url(#paint10_linear)"/>
<path d="M110.602 153.8L112.401 154.838L112.545 154.921L112.693 154.835L114.491 153.8V147.967L114.643 147.879L114.491 147.8L112.545 148.944L110.602 147.8L110.461 147.879L110.602 147.961V153.8Z" fill="url(#paint11_linear)"/>
<path d="M116.402 157.472C116.421 157.488 116.444 157.501 116.471 157.508L116.553 157.551L116.573 157.521C116.638 157.518 116.714 157.495 116.789 157.452C117.082 157.281 117.322 156.87 117.322 156.528C117.322 156.472 117.315 156.423 117.302 156.377L117.355 156.298L117.168 156.196C117.131 156.177 117.092 156.167 117.046 156.167C116.977 156.167 116.898 156.19 116.816 156.236C116.523 156.407 116.283 156.818 116.283 157.16C116.283 157.304 116.326 157.409 116.402 157.472Z" fill="url(#paint12_linear)"/>
<path d="M130.341 126.392L115.209 135.156V147.376L114.87 147.577V154.017L113.94 154.553V156.381L116.629 154.849L116.612 137.287L120.587 134.969V133.207L129.342 128.154L128.931 132.132L122.507 135.722V135.288L128.576 131.898L128.872 129.032L129.039 128.933L128.888 128.854L120.965 133.427V135.189L116.99 137.507L117.007 155.072L113.19 157.249V169.311L116.593 167.364V157.913C116.543 157.926 116.491 157.932 116.445 157.932C116.149 157.932 115.958 157.692 115.958 157.318C115.958 156.792 116.33 156.151 116.783 155.888C116.915 155.812 117.043 155.772 117.161 155.772C117.457 155.772 117.648 156.012 117.648 156.387C117.648 156.854 117.355 157.41 116.971 157.712V167.581L112.809 169.962V157.025L113.558 156.598V154.941L113.709 154.855L113.558 154.776L112.542 155.362L111.53 154.776L111.388 154.855L111.53 154.937V156.604L112.279 157.032V169.968L108.117 167.588V157.719C107.733 157.416 107.44 156.857 107.44 156.394C107.44 156.019 107.631 155.779 107.927 155.779C108.045 155.779 108.173 155.819 108.305 155.894C108.762 156.157 109.13 156.798 109.13 157.324C109.13 157.696 108.939 157.939 108.643 157.939C108.594 157.939 108.545 157.932 108.495 157.919V167.371L111.898 169.317V157.255L108.081 155.079L108.098 137.513L104.123 135.196V133.434L96.1999 128.861L96.0586 128.939L96.2164 129.032L96.5122 131.905L102.581 135.294V135.728L96.1572 132.138L95.7463 128.16L104.501 133.213V134.975L108.476 137.293L108.459 154.855L111.148 156.387V154.559L110.218 154.023V147.583L109.879 147.383V135.163L94.7468 126.398L94.6055 126.477L94.7633 126.569L95.4339 132.661L106.723 139.177V151.41V153.113V155.076V167.812L112.394 171.116L112.539 171.198L112.687 171.112L118.358 167.808V155.072V153.11V151.407V139.174L129.648 132.658L130.315 126.576L130.486 126.477L130.341 126.392Z" fill="url(#paint13_linear)"/>
<path d="M111.461 127.91V130.833L112.723 131.56L113.986 130.833V127.91L112.723 127.19L111.461 127.91Z" fill="url(#paint14_linear)"/>
<path d="M111.3 127.638L112.369 127.026L101.332 120.655L98.6465 122.207L111.064 129.377V127.937L102.864 123.13C102.651 123.232 102.388 123.291 102.105 123.291C101.786 123.291 101.484 123.219 101.26 123.088C101.027 122.953 100.898 122.772 100.898 122.575C100.898 122.377 101.027 122.197 101.26 122.062C101.487 121.93 101.786 121.858 102.105 121.858C102.424 121.858 102.726 121.93 102.95 122.062C103.183 122.197 103.312 122.377 103.312 122.575C103.312 122.683 103.269 122.788 103.193 122.884L111.3 127.638Z" fill="url(#paint15_linear)"/>
<path d="M102.121 122.151C101.914 122.151 101.723 122.197 101.578 122.279C101.44 122.358 101.361 122.466 101.361 122.575C101.361 122.687 101.437 122.792 101.578 122.871C101.723 122.953 101.914 122.999 102.121 122.999C102.328 122.999 102.519 122.953 102.663 122.871C102.801 122.792 102.88 122.683 102.88 122.575C102.88 122.463 102.805 122.358 102.663 122.279C102.519 122.197 102.328 122.151 102.121 122.151Z" fill="url(#paint16_linear)"/>
<path d="M97.5352 122.847L111.063 130.659V129.81L98.2683 122.423L97.5352 122.847Z" fill="url(#paint17_linear)"/>
<path d="M122.159 122.578C122.159 122.381 122.287 122.2 122.52 122.065C122.747 121.934 123.046 121.861 123.365 121.861C123.684 121.861 123.987 121.934 124.21 122.065C124.444 122.2 124.572 122.381 124.572 122.578C124.572 122.775 124.444 122.956 124.21 123.091C123.983 123.222 123.684 123.295 123.365 123.295C123.083 123.295 122.82 123.236 122.606 123.134L114.407 127.937V129.377L126.824 122.207L124.138 120.655L113.102 127.026L114.17 127.638L122.277 122.887C122.198 122.792 122.159 122.686 122.159 122.578Z" fill="url(#paint18_linear)"/>
<path d="M127.205 122.423L114.41 129.81V130.659L127.938 122.847L127.205 122.423Z" fill="url(#paint19_linear)"/>
<path d="M123.416 123.002C123.623 123.002 123.813 122.956 123.958 122.874C124.096 122.795 124.175 122.686 124.175 122.578C124.175 122.466 124.099 122.361 123.958 122.282C123.813 122.2 123.623 122.154 123.416 122.154C123.209 122.154 123.018 122.2 122.873 122.282C122.735 122.361 122.656 122.469 122.656 122.578C122.656 122.69 122.732 122.795 122.873 122.874C123.015 122.956 123.209 123.002 123.416 123.002Z" fill="url(#paint20_linear)"/>
<path d="M109.952 88.2788L108.367 89.1927V91.1982L109.952 90.2842V88.2788Z" fill="url(#paint21_linear)"/>
<path d="M108.367 91.7079V93.5818L111.786 91.6093L110.162 90.6724L108.367 91.7079Z" fill="url(#paint22_linear)"/>
<path d="M114.381 88.2788V90.2842L115.969 91.1982V89.1927L114.381 88.2788Z" fill="url(#paint23_linear)"/>
<path d="M112.168 89.5151L110.541 90.4521L112.165 91.389H112.168L113.792 90.4521L112.168 89.5151Z" fill="url(#paint24_linear)"/>
<path d="M114.002 90.064V88.0586L112.168 87L110.33 88.0586V90.064L112.168 89.0054L114.002 90.064Z" fill="url(#paint25_linear)"/>
<path d="M112.549 91.6093L115.968 93.5818V91.7079L114.17 90.6724L112.549 91.6093Z" fill="url(#paint26_linear)"/>
<line x1="125.086" y1="81.851" x2="155.718" y2="100.264" stroke="#B620B4"/>
<line x1="155.145" y1="100.407" x2="200.064" y2="67.4035" stroke="#B620B4"/>
<line x1="101.055" y1="82.6475" x2="102.028" y2="26.916" stroke="#0BBDC9"/>
<line x1="64.5597" y1="111.498" x2="10.1913" y2="99.2087" stroke="#DD2D36"/>
<line x1="10.7623" y1="99.5889" x2="0.568991" y2="82.2535" stroke="#DD2D36"/>
<line x1="72.1806" y1="157.391" x2="26.7679" y2="189.712" stroke="#D9911B"/>
<line x1="124.865" y1="174.145" x2="129.752" y2="229.671" stroke="#2DCE89"/>
<line x1="161.087" y1="146.508" x2="215.973" y2="156.226" stroke="#7C1DC9"/>
<line x1="71.2576" y1="157.571" x2="101.89" y2="175.984" stroke="#D9911B"/>
<line x1="124.587" y1="174.123" x2="154.734" y2="156.858" stroke="#2DCE89"/>
<line x1="71.7147" y1="100.359" x2="101.555" y2="82.5707" stroke="#0BBDC9"/>
<line x1="64.6738" y1="111" x2="64.6738" y2="146.74" stroke="#DD2D36"/>
<line x1="161.674" y1="111" x2="161.674" y2="146.74" stroke="#7C1DC9"/>
<path d="M102 6L94.9375 8.00831V12.1751C94.9375 14.3604 95.6099 16.4502 96.8821 18.2185C98.127 19.949 99.8428 21.2375 101.844 21.9448L102 22L102.156 21.9448C104.157 21.2375 105.873 19.949 107.118 18.2184C108.39 16.4501 109.062 14.3603 109.062 12.1751V8.00831L102 6ZM102 18.967C100.878 18.4224 99.9013 17.5992 99.1651 16.576C98.4091 15.525 97.9442 14.3173 97.7992 13.0425L102 11.848L106.201 13.0426C106.056 14.3173 105.591 15.525 104.835 16.576C104.099 17.5993 103.122 18.4225 102 18.967ZM106.25 12.0819L102 10.8733L97.75 12.0819V10.1325L102 8.924L106.25 10.1325V12.0819ZM95.875 12.1751V8.71638L101.531 7.10797V8.08262L96.8125 9.42447V12.1751C96.8125 13.965 97.3628 15.6761 98.4041 17.1235C99.2181 18.2549 100.295 19.1687 101.531 19.7811V20.8142C98.122 19.3276 95.875 15.9367 95.875 12.1751V12.1751ZM108.125 12.1751C108.125 15.9367 105.878 19.3277 102.469 20.8142V19.7811C103.705 19.1687 104.782 18.2549 105.596 17.1235C106.637 15.6761 107.188 13.965 107.188 12.1751V9.42447L102.469 8.08262V7.10797L108.125 8.71638V12.1751Z" fill="#0BBDC9"/>
<path d="M15 188L7.9375 190.008V194.175C7.9375 196.36 8.60994 198.45 9.88206 200.218C11.127 201.949 12.8428 203.238 14.8438 203.945L15 204L15.1562 203.945C17.1572 203.238 18.873 201.949 20.1179 200.218C21.3901 198.45 22.0625 196.36 22.0625 194.175V190.008L15 188ZM15 200.967C13.8783 200.422 12.9013 199.599 12.1651 198.576C11.4091 197.525 10.9442 196.317 10.7992 195.043L15 193.848L19.2008 195.043C19.0558 196.317 18.591 197.525 17.8349 198.576C17.0987 199.599 16.1217 200.422 15 200.967ZM19.25 194.082L15 192.873L10.75 194.082V192.133L15 190.924L19.25 192.133V194.082ZM8.875 194.175V190.716L14.5312 189.108V190.083L9.8125 191.424V194.175C9.8125 195.965 10.3628 197.676 11.4041 199.123C12.2181 200.255 13.2947 201.169 14.5312 201.781V202.814C11.122 201.328 8.875 197.937 8.875 194.175V194.175ZM21.125 194.175C21.125 197.937 18.878 201.328 15.4688 202.814V201.781C16.7053 201.169 17.7819 200.255 18.5959 199.123C19.6372 197.676 20.1875 195.965 20.1875 194.175V191.424L15.4688 190.083V189.108L21.125 190.716V194.175Z" fill="#D9911B"/>
<path d="M130 235L122.938 237.008V241.175C122.938 243.36 123.61 245.45 124.882 247.218C126.127 248.949 127.843 250.238 129.844 250.945L130 251L130.156 250.945C132.157 250.238 133.873 248.949 135.118 247.218C136.39 245.45 137.062 243.36 137.062 241.175V237.008L130 235ZM130 247.967C128.878 247.422 127.901 246.599 127.165 245.576C126.409 244.525 125.944 243.317 125.799 242.043L130 240.848L134.201 242.043C134.056 243.317 133.591 244.525 132.835 245.576C132.099 246.599 131.122 247.422 130 247.967ZM134.25 241.082L130 239.873L125.75 241.082V239.133L130 237.924L134.25 239.133V241.082ZM123.875 241.175V237.716L129.531 236.108V237.083L124.812 238.424V241.175C124.812 242.965 125.363 244.676 126.404 246.123C127.218 247.255 128.295 248.169 129.531 248.781V249.814C126.122 248.328 123.875 244.937 123.875 241.175V241.175ZM136.125 241.175C136.125 244.937 133.878 248.328 130.469 249.814V248.781C131.705 248.169 132.782 247.255 133.596 246.123C134.637 244.676 135.188 242.965 135.188 241.175V238.424L130.469 237.083V236.108L136.125 237.716V241.175Z" fill="#2DCE89"/>
<path d="M228 148L220.938 150.008V154.175C220.938 156.36 221.61 158.45 222.882 160.218C224.127 161.949 225.843 163.238 227.844 163.945L228 164L228.156 163.945C230.157 163.238 231.873 161.949 233.118 160.218C234.39 158.45 235.062 156.36 235.062 154.175V150.008L228 148ZM228 160.967C226.878 160.422 225.901 159.599 225.165 158.576C224.409 157.525 223.944 156.317 223.799 155.043L228 153.848L232.201 155.043C232.056 156.317 231.591 157.525 230.835 158.576C230.099 159.599 229.122 160.422 228 160.967ZM232.25 154.082L228 152.873L223.75 154.082V152.133L228 150.924L232.25 152.133V154.082ZM221.875 154.175V150.716L227.531 149.108V150.083L222.812 151.424V154.175C222.812 155.965 223.363 157.676 224.404 159.123C225.218 160.255 226.295 161.169 227.531 161.781V162.814C224.122 161.328 221.875 157.937 221.875 154.175V154.175ZM234.125 154.175C234.125 157.937 231.878 161.328 228.469 162.814V161.781C229.705 161.169 230.782 160.255 231.596 159.123C232.637 157.676 233.188 155.965 233.188 154.175V151.424L228.469 150.083V149.108L234.125 150.716V154.175Z" fill="#7C1DC9"/>
<path d="M212 53L204.938 55.0083V59.1751C204.938 61.3604 205.61 63.4502 206.882 65.2185C208.127 66.949 209.843 68.2375 211.844 68.9448L212 69L212.156 68.9448C214.157 68.2375 215.873 66.949 217.118 65.2184C218.39 63.4501 219.062 61.3603 219.062 59.1751V55.0083L212 53ZM212 65.967C210.878 65.4224 209.901 64.5992 209.165 63.576C208.409 62.525 207.944 61.3173 207.799 60.0425L212 58.848L216.201 60.0426C216.056 61.3173 215.591 62.525 214.835 63.576C214.099 64.5993 213.122 65.4225 212 65.967ZM216.25 59.0819L212 57.8733L207.75 59.0819V57.1325L212 55.924L216.25 57.1325V59.0819ZM205.875 59.1751V55.7164L211.531 54.108V55.0826L206.812 56.4245V59.1751C206.812 60.965 207.363 62.6761 208.404 64.1235C209.218 65.2549 210.295 66.1687 211.531 66.7811V67.8142C208.122 66.3276 205.875 62.9367 205.875 59.1751V59.1751ZM218.125 59.1751C218.125 62.9367 215.878 66.3277 212.469 67.8142V66.7811C213.705 66.1687 214.782 65.2549 215.596 64.1235C216.637 62.6761 217.188 60.965 217.188 59.1751V56.4245L212.469 55.0826V54.108L218.125 55.7164V59.1751Z" fill="#B620B4"/>
<path d="M90.3756 7.28867L102 0.57735L113.624 7.28867V20.7113L102 27.4227L90.3756 20.7113V7.28867Z" stroke="#0BBDC9"/>
<path d="M3.37564 189.289L15 182.577L26.6244 189.289V202.711L15 209.423L3.37564 202.711V189.289Z" stroke="#D9911B"/>
<path d="M118.376 236.289L130 229.577L141.624 236.289V249.711L130 256.423L118.376 249.711V236.289Z" stroke="#2DCE89"/>
<path d="M216.376 149.289L228 142.577L239.624 149.289V162.711L228 169.423L216.376 162.711V149.289Z" stroke="#7C1DC9"/>
<path d="M200.376 54.2887L212 47.5774L223.624 54.2887V67.7113L212 74.4227L200.376 67.7113V54.2887Z" stroke="#B620B4"/>
<defs>
<linearGradient id="paint0_linear" x1="140.682" y1="112.862" x2="142.342" y2="112.862" gradientUnits="userSpaceOnUse">
<stop offset="0.0566" stop-color="#C9994F"/>
<stop offset="0.4057" stop-color="#F6E27A"/>
<stop offset="0.5236" stop-color="#F6F2C1"/>
<stop offset="0.6368" stop-color="#F6E27A"/>
<stop offset="0.9387" stop-color="#C9994F"/>
<stop offset="1" stop-color="#462523"/>
</linearGradient>
<linearGradient id="paint1_linear" x1="144.65" y1="138.269" x2="145.822" y2="138.269" gradientUnits="userSpaceOnUse">
<stop offset="0.0566" stop-color="#C9994F"/>
<stop offset="0.4057" stop-color="#F6E27A"/>
<stop offset="0.5236" stop-color="#F6F2C1"/>
<stop offset="0.6368" stop-color="#F6E27A"/>
<stop offset="0.9387" stop-color="#C9994F"/>
<stop offset="1" stop-color="#462523"/>
</linearGradient>
<linearGradient id="paint2_linear" x1="148.63" y1="143.535" x2="149.735" y2="143.535" gradientUnits="userSpaceOnUse">
<stop offset="0.0566" stop-color="#C9994F"/>
<stop offset="0.4057" stop-color="#F6E27A"/>
<stop offset="0.5236" stop-color="#F6F2C1"/>
<stop offset="0.6368" stop-color="#F6E27A"/>
<stop offset="0.9387" stop-color="#C9994F"/>
<stop offset="1" stop-color="#462523"/>
</linearGradient>
<linearGradient id="paint3_linear" x1="137.21" y1="110.859" x2="138.87" y2="110.859" gradientUnits="userSpaceOnUse">
<stop offset="0.0566" stop-color="#C9994F"/>
<stop offset="0.4057" stop-color="#F6E27A"/>
<stop offset="0.5236" stop-color="#F6F2C1"/>
<stop offset="0.6368" stop-color="#F6E27A"/>
<stop offset="0.9387" stop-color="#C9994F"/>
<stop offset="1" stop-color="#462523"/>
</linearGradient>
<linearGradient id="paint4_linear" x1="150.324" y1="127.189" x2="105.016" y2="127.189" gradientUnits="userSpaceOnUse">
<stop offset="0.0566" stop-color="#C9994F"/>
<stop offset="0.4057" stop-color="#F6E27A"/>
<stop offset="0.5236" stop-color="#F6F2C1"/>
<stop offset="0.6368" stop-color="#F6E27A"/>
<stop offset="0.9387" stop-color="#C9994F"/>
<stop offset="1" stop-color="#462523"/>
</linearGradient>
<linearGradient id="paint5_linear" x1="83.562" y1="112.83" x2="85.2224" y2="112.83" gradientUnits="userSpaceOnUse">
<stop offset="0.0566" stop-color="#C9994F"/>
<stop offset="0.4057" stop-color="#F6E27A"/>
<stop offset="0.5236" stop-color="#F6F2C1"/>
<stop offset="0.6368" stop-color="#F6E27A"/>
<stop offset="0.9387" stop-color="#C9994F"/>
<stop offset="1" stop-color="#462523"/>
</linearGradient>
<linearGradient id="paint6_linear" x1="80.0519" y1="138.269" x2="81.2236" y2="138.269" gradientUnits="userSpaceOnUse">
<stop offset="0.0566" stop-color="#C9994F"/>
<stop offset="0.4057" stop-color="#F6E27A"/>
<stop offset="0.5236" stop-color="#F6F2C1"/>
<stop offset="0.6368" stop-color="#F6E27A"/>
<stop offset="0.9387" stop-color="#C9994F"/>
<stop offset="1" stop-color="#462523"/>
</linearGradient>
<linearGradient id="paint7_linear" x1="76.2658" y1="143.535" x2="77.3701" y2="143.535" gradientUnits="userSpaceOnUse">
<stop offset="0.0566" stop-color="#C9994F"/>
<stop offset="0.4057" stop-color="#F6E27A"/>
<stop offset="0.5236" stop-color="#F6F2C1"/>
<stop offset="0.6368" stop-color="#F6E27A"/>
<stop offset="0.9387" stop-color="#C9994F"/>
<stop offset="1" stop-color="#462523"/>
</linearGradient>
<linearGradient id="paint8_linear" x1="87.0356" y1="110.858" x2="88.6959" y2="110.858" gradientUnits="userSpaceOnUse">
<stop offset="0.0566" stop-color="#C9994F"/>
<stop offset="0.4057" stop-color="#F6E27A"/>
<stop offset="0.5236" stop-color="#F6F2C1"/>
<stop offset="0.6368" stop-color="#F6E27A"/>
<stop offset="0.9387" stop-color="#C9994F"/>
<stop offset="1" stop-color="#462523"/>
</linearGradient>
<linearGradient id="paint9_linear" x1="75.5491" y1="127.213" x2="120.857" y2="127.213" gradientUnits="userSpaceOnUse">
<stop offset="0.0566" stop-color="#C9994F"/>
<stop offset="0.4057" stop-color="#F6E27A"/>
<stop offset="0.5236" stop-color="#F6F2C1"/>
<stop offset="0.6368" stop-color="#F6E27A"/>
<stop offset="0.9387" stop-color="#C9994F"/>
<stop offset="1" stop-color="#462523"/>
</linearGradient>
<linearGradient id="paint10_linear" x1="107.772" y1="156.857" x2="108.81" y2="156.857" gradientUnits="userSpaceOnUse">
<stop offset="0.0566" stop-color="#C9994F"/>
<stop offset="0.4057" stop-color="#F6E27A"/>
<stop offset="0.5236" stop-color="#F6F2C1"/>
<stop offset="0.6368" stop-color="#F6E27A"/>
<stop offset="0.9387" stop-color="#C9994F"/>
<stop offset="1" stop-color="#462523"/>
</linearGradient>
<linearGradient id="paint11_linear" x1="105.568" y1="145.884" x2="116.126" y2="153.301" gradientUnits="userSpaceOnUse">
<stop stop-color="#462523"/>
<stop offset="0.0566" stop-color="#C9994F"/>
<stop offset="0.4057" stop-color="#F6E27A"/>
<stop offset="0.6368" stop-color="#F6E27A"/>
<stop offset="0.9387" stop-color="#C9994F"/>
<stop offset="1" stop-color="#462523"/>
</linearGradient>
<linearGradient id="paint12_linear" x1="116.284" y1="156.861" x2="117.354" y2="156.861" gradientUnits="userSpaceOnUse">
<stop offset="0.0566" stop-color="#C9994F"/>
<stop offset="0.4057" stop-color="#F6E27A"/>
<stop offset="0.5236" stop-color="#F6F2C1"/>
<stop offset="0.6368" stop-color="#F6E27A"/>
<stop offset="0.9387" stop-color="#C9994F"/>
<stop offset="1" stop-color="#462523"/>
</linearGradient>
<linearGradient id="paint13_linear" x1="65.6412" y1="109.926" x2="133.72" y2="157.754" gradientUnits="userSpaceOnUse">
<stop offset="0.0566" stop-color="#C9994F"/>
<stop offset="0.4057" stop-color="#F6E27A"/>
<stop offset="0.5236" stop-color="#F6F2C1"/>
<stop offset="0.6368" stop-color="#F6E27A"/>
<stop offset="0.9387" stop-color="#C9994F"/>
<stop offset="1" stop-color="#462523"/>
</linearGradient>
<linearGradient id="paint14_linear" x1="111.989" y1="121.671" x2="114.64" y2="149.44" gradientUnits="userSpaceOnUse">
<stop offset="0.0566" stop-color="#C9994F"/>
<stop offset="0.4057" stop-color="#F6E27A"/>
<stop offset="0.5236" stop-color="#F6F2C1"/>
<stop offset="0.6368" stop-color="#F6E27A"/>
<stop offset="0.9387" stop-color="#C9994F"/>
<stop offset="1" stop-color="#462523"/>
</linearGradient>
<linearGradient id="paint15_linear" x1="105.295" y1="122.376" x2="107.946" y2="150.145" gradientUnits="userSpaceOnUse">
<stop offset="0.0566" stop-color="#C9994F"/>
<stop offset="0.4057" stop-color="#F6E27A"/>
<stop offset="0.5236" stop-color="#F6F2C1"/>
<stop offset="0.6368" stop-color="#F6E27A"/>
<stop offset="0.9387" stop-color="#C9994F"/>
<stop offset="1" stop-color="#462523"/>
</linearGradient>
<linearGradient id="paint16_linear" x1="101.363" y1="122.577" x2="102.88" y2="122.577" gradientUnits="userSpaceOnUse">
<stop offset="0.0566" stop-color="#C9994F"/>
<stop offset="0.4057" stop-color="#F6E27A"/>
<stop offset="0.5236" stop-color="#F6F2C1"/>
<stop offset="0.6368" stop-color="#F6E27A"/>
<stop offset="0.9387" stop-color="#C9994F"/>
<stop offset="1" stop-color="#462523"/>
</linearGradient>
<linearGradient id="paint17_linear" x1="103.933" y1="122.506" x2="106.584" y2="150.275" gradientUnits="userSpaceOnUse">
<stop offset="0.0566" stop-color="#C9994F"/>
<stop offset="0.4057" stop-color="#F6E27A"/>
<stop offset="0.5236" stop-color="#F6F2C1"/>
<stop offset="0.6368" stop-color="#F6E27A"/>
<stop offset="0.9387" stop-color="#C9994F"/>
<stop offset="1" stop-color="#462523"/>
</linearGradient>
<linearGradient id="paint18_linear" x1="119.619" y1="121.009" x2="122.27" y2="148.778" gradientUnits="userSpaceOnUse">
<stop offset="0.0566" stop-color="#C9994F"/>
<stop offset="0.4057" stop-color="#F6E27A"/>
<stop offset="0.5236" stop-color="#F6F2C1"/>
<stop offset="0.6368" stop-color="#F6E27A"/>
<stop offset="0.9387" stop-color="#C9994F"/>
<stop offset="1" stop-color="#462523"/>
</linearGradient>
<linearGradient id="paint19_linear" x1="120.616" y1="120.914" x2="123.267" y2="148.682" gradientUnits="userSpaceOnUse">
<stop offset="0.0566" stop-color="#C9994F"/>
<stop offset="0.4057" stop-color="#F6E27A"/>
<stop offset="0.5236" stop-color="#F6F2C1"/>
<stop offset="0.6368" stop-color="#F6E27A"/>
<stop offset="0.9387" stop-color="#C9994F"/>
<stop offset="1" stop-color="#462523"/>
</linearGradient>
<linearGradient id="paint20_linear" x1="122.656" y1="122.577" x2="124.173" y2="122.577" gradientUnits="userSpaceOnUse">
<stop offset="0.0566" stop-color="#C9994F"/>
<stop offset="0.4057" stop-color="#F6E27A"/>
<stop offset="0.5236" stop-color="#F6F2C1"/>
<stop offset="0.6368" stop-color="#F6E27A"/>
<stop offset="0.9387" stop-color="#C9994F"/>
<stop offset="1" stop-color="#462523"/>
</linearGradient>
<linearGradient id="paint21_linear" x1="109.224" y1="88.322" x2="108.902" y2="95.4246" gradientUnits="userSpaceOnUse">
<stop offset="0.0566" stop-color="#C9994F"/>
<stop offset="0.4057" stop-color="#F6E27A"/>
<stop offset="0.5236" stop-color="#F6F2C1"/>
<stop offset="0.6368" stop-color="#F6E27A"/>
<stop offset="0.9387" stop-color="#C9994F"/>
<stop offset="1" stop-color="#462523"/>
</linearGradient>
<linearGradient id="paint22_linear" x1="110.117" y1="90.7462" x2="109.796" y2="97.8488" gradientUnits="userSpaceOnUse">
<stop offset="0.0566" stop-color="#C9994F"/>
<stop offset="0.4057" stop-color="#F6E27A"/>
<stop offset="0.5236" stop-color="#F6F2C1"/>
<stop offset="0.6368" stop-color="#F6E27A"/>
<stop offset="0.9387" stop-color="#C9994F"/>
<stop offset="1" stop-color="#462523"/>
</linearGradient>
<linearGradient id="paint23_linear" x1="115.236" y1="88.39" x2="114.93" y2="95.1517" gradientUnits="userSpaceOnUse">
<stop offset="0.0566" stop-color="#C9994F"/>
<stop offset="0.4057" stop-color="#F6E27A"/>
<stop offset="0.5236" stop-color="#F6F2C1"/>
<stop offset="0.6368" stop-color="#F6E27A"/>
<stop offset="0.9387" stop-color="#C9994F"/>
<stop offset="1" stop-color="#462523"/>
</linearGradient>
<linearGradient id="paint24_linear" x1="112.208" y1="89.5644" x2="112.006" y2="94.0155" gradientUnits="userSpaceOnUse">
<stop offset="0.0566" stop-color="#C9994F"/>
<stop offset="0.4057" stop-color="#F6E27A"/>
<stop offset="0.5236" stop-color="#F6F2C1"/>
<stop offset="0.6368" stop-color="#F6E27A"/>
<stop offset="0.9387" stop-color="#C9994F"/>
<stop offset="1" stop-color="#462523"/>
</linearGradient>
<linearGradient id="paint25_linear" x1="112.257" y1="87.0849" x2="111.918" y2="94.5553" gradientUnits="userSpaceOnUse">
<stop offset="0.0566" stop-color="#C9994F"/>
<stop offset="0.4057" stop-color="#F6E27A"/>
<stop offset="0.5236" stop-color="#F6F2C1"/>
<stop offset="0.6368" stop-color="#F6E27A"/>
<stop offset="0.9387" stop-color="#C9994F"/>
<stop offset="1" stop-color="#462523"/>
</linearGradient>
<linearGradient id="paint26_linear" x1="114.341" y1="90.7518" x2="114.037" y2="97.4683" gradientUnits="userSpaceOnUse">
<stop offset="0.0566" stop-color="#C9994F"/>
<stop offset="0.4057" stop-color="#F6E27A"/>
<stop offset="0.5236" stop-color="#F6F2C1"/>
<stop offset="0.6368" stop-color="#F6E27A"/>
<stop offset="0.9387" stop-color="#C9994F"/>
<stop offset="1" stop-color="#462523"/>
</linearGradient>
</defs>
</svg>
