<svg xmlns="http://www.w3.org/2000/svg" width="904.501" height="628.186" viewBox="0 0 904.501 628.186">
  <g id="Group_136" data-name="Group 136" transform="translate(-336.193 -140.647)">
    <path id="Path_509" data-name="Path 509" d="M385.833,216.558l-10.811-.246c3.462,4.467,4.244,8.644,2.077,12.173s-7.349,6.522-15.077,8.756A139.868,139.868,0,0,0,176.634,59.58c-2.077.893-4.132,1.809-6.12,2.77h0a179.369,179.369,0,0,0-17.534-4.467C124.479,52.075,104.243,56.1,96,69.05c-7.818,12.4-3.551,31.092,11.972,52.869h0c-2.1,3.864-3.976,7.84-5.718,11.95-1.318,3.082-2.479,6.187-3.551,9.336-29.171,1.742-44.784,6.88-50.457,16.171-6.7,10.811,2.412,25.351,31.27,39.468,3.953,1.943,8.22,3.864,12.687,5.785A137.008,137.008,0,0,0,102.255,242.6a139.8,139.8,0,0,0,257,1.318c14.228-2.948,23.609-7.572,27.317-13.67C389.161,226.207,388.848,221.471,385.833,216.558Zm-33.392,22.894a217.721,217.721,0,0,1-35.09,2.837,516.514,516.514,0,0,1-71.944-4.847q3.283-7.125,6.41-14.63a197.582,197.582,0,0,0,23.3,6.343,118.869,118.869,0,0,0,23.252,2.591c16.305,0,27.965-4.713,33.727-13.848a25.081,25.081,0,0,0,2.234-4.8h-8.309a8.082,8.082,0,0,1-.447.737c-4.266,6.7-13.826,10.319-27.272,10.319a111.057,111.057,0,0,1-21.778-2.435,190,190,0,0,1-21.912-5.941q2.971-7.5,5.807-15.278c5.07-13.938,9.4-27.786,12.91-41.054a353.847,353.847,0,0,0,51.373,3.529q17.02,0,35.246-1.362a132.854,132.854,0,0,1-7.55,77.841ZM179.493,308.694c-4.043-1.474-6.1-7.259-7.1-11.86a104.309,104.309,0,0,1-.826-29.551c.536-6.1,1.385-12.6,2.524-19.365a357.6,357.6,0,0,1,48.894,16.908c-3.6,6.209-7.215,11.95-10.855,17.154a103.35,103.35,0,0,1-19.589,22.157c-3.775,2.926-9,6.053-13.044,4.6Zm47.241-50.3a366.678,366.678,0,0,0-51.373-17.735c.6-3.149,1.273-6.366,2.01-9.6q7.192,1.653,14.652,3.172c14.5,2.971,29.037,5.472,43.108,7.527C232.407,247.538,229.548,253.1,226.734,258.393Zm-31.27-29.417q-8.421-1.742-16.529-3.6c2.546-10.632,5.673-21.711,9.336-32.99A322.42,322.42,0,0,0,245,220.355c-2.234,5.495-4.668,10.855-7.081,16.015-14.094-1.988-28.344-4.467-42.639-7.393ZM148.8,85.557a85.821,85.821,0,0,0,5.137,8.934,123.294,123.294,0,0,0,31.271,32.1,155.362,155.362,0,0,0,16.484,10.252c-5.316,11.57-10.386,23.944-15.032,36.765q-1.3,3.618-2.546,7.17c-27.808-18.092-51.373-38.865-66.785-58.967h0a131.784,131.784,0,0,1,13.357-18.584q3.082-3.618,6.433-7.036l.916-.916A134.909,134.909,0,0,1,148.8,85.557ZM267.7,65.454c4.043,1.474,6.1,7.259,7.1,11.86a104.263,104.263,0,0,1,.827,29.551,291.5,291.5,0,0,1-7.728,44.158c-4.735-.826-9.381-1.742-13.893-2.792a199.26,199.26,0,0,1-42.55-14.652,297.069,297.069,0,0,1,23.609-41.411,103.35,103.35,0,0,1,19.589-22.157c3.082-2.39,7.215-4.936,10.833-4.936a6.7,6.7,0,0,1,2.211.424Zm-15.859,89.88c4.624,1.072,9.381,2.033,14.228,2.881-3.417,12.843-7.617,26.223-12.508,39.713-1.9,5.2-3.842,10.342-5.852,15.367a316.3,316.3,0,0,1-57.136-28.367c.983-2.9,2.01-5.807,3.06-8.733,4.467-12.531,9.493-24.57,14.675-35.916a206.5,206.5,0,0,0,43.533,15.1Zm72.279-60.062a131.447,131.447,0,0,1,34.152,59.034,387.063,387.063,0,0,1-83.023-2.077,303.147,303.147,0,0,0,7.773-44.672c1.273-14.786,1.117-32.3-4.869-42.17l4.155,1.675A130.51,130.51,0,0,1,324.119,95.273ZM231.067,56.7a131.157,131.157,0,0,1,26.8,2.747c-10.342,4.467-20.907,17.02-29.037,28.523a307.077,307.077,0,0,0-24.123,42.26,141.174,141.174,0,0,1-14.63-9.269,113.914,113.914,0,0,1-29.64-29.93A78.3,78.3,0,0,1,154.834,81a131.449,131.449,0,0,1,17.02-10.275h0c2.412-1.206,4.892-2.234,7.393-3.417l.536-.246h.134l1.608-.67.424-.179A130.845,130.845,0,0,1,231.067,56.7ZM102.433,73.182c4.289-6.7,13.848-10.3,27.272-10.3a110.875,110.875,0,0,1,21.778,2.435c3.038.6,6.165,1.34,9.336,2.234h0a137.7,137.7,0,0,0-28.612,22.068c-1.809,1.787-3.551,3.618-5.249,5.539a83.091,83.091,0,0,0-6.12,7.282,141.252,141.252,0,0,0-8.644,12.374h0C100.312,97.149,96.738,82.206,102.433,73.182Zm7.259,63.97c1.184-2.7,2.39-5.361,3.708-7.952h0c16.261,20.348,40.2,41.121,68.237,59.146-3.976,12.084-7.349,23.967-10.1,35.336a538.036,538.036,0,0,1-55.84-16.462q-5.227-1.876-10.1-3.8c-1.9-.759-3.8-1.541-5.629-2.234-.29-2.837-.491-5.7-.581-8.577v-8.934a134.441,134.441,0,0,1,6.031-34.934c.6-1.9,1.251-3.8,1.966-5.673S108.889,139.051,109.693,137.153ZM86.016,194.78C60.844,182.5,49.363,170.635,54.5,162.236c4.155-6.7,19.276-11.436,42.438-13.134a135.758,135.758,0,0,0-5.249,29.528c-.2,2.971-.313,5.964-.357,8.934v.782c0,3.015,0,6.031.29,8.934A56.487,56.487,0,0,1,86.016,194.78Zm19.075,15.077q5.137,1.921,10.476,3.8a557.648,557.648,0,0,0,54.7,15.635c-.715,3.194-1.385,6.343-1.988,9.448l-4.847-1.139a295.933,295.933,0,0,0-57.314-7.617,130.981,130.981,0,0,1-5.182-21.733Zm4.646,29.774-.849-2.122A296.686,296.686,0,0,1,161.78,244.9l5.16,1.228c-1.251,7.192-2.234,14.072-2.725,20.549-1.05,12.263-1.139,26.379,2.234,36.475a132.587,132.587,0,0,1-56.756-63.524ZM282.35,309.7a132.1,132.1,0,0,1-91.176,4.2c9.739-5.093,19.522-16.819,27.071-27.63,3.887-5.562,7.773-11.749,11.592-18.4a372.453,372.453,0,0,1,63.345,36.653c-3.574,1.831-7.17,3.618-10.878,5.182Zm41.813-28.21a129.372,129.372,0,0,1-23.944,18.986,379.038,379.038,0,0,0-66.785-39.088q4.825-8.8,9.47-18.584a569.746,569.746,0,0,0,60.687,4.981c4.891.134,9.649.134,14.25.112a253.253,253.253,0,0,0,31.74-2.234,130.352,130.352,0,0,1-25.463,35.827Z" transform="translate(290.04 111.743)" fill="#0bbdc9"/>
    <g id="Window" transform="translate(440.901 140.647)">
      <ellipse id="Floor" cx="315.137" cy="181.945" rx="315.137" ry="181.945" transform="translate(0 264.295)" fill="#f0f0f0"/>
      <path id="Shadow" d="M438.088,276.805l-64.051-37.061a13.025,13.025,0,0,0-11.787,0L36.837,427.569c-3.253,1.878-3.253,4.927,0,6.805L100.9,471.435a13.025,13.025,0,0,0,11.787,0l121.936-70.407,18.755,10.888c9.922,5.73,26.01,5.73,35.945,0L345.2,379.891c9.936-5.73,9.936-14.972,0-20.756l-18.742-10.888,111.606-64.7C441.327,281.732,441.327,278.711,438.088,276.805Z" transform="translate(-12.447 57.516)" fill="#e0e0e0"/>
      <g id="Device" transform="translate(63.425 0)">
        <g id="Monitor">
          <path id="Path_540" data-name="Path 540" d="M242.505,398.7l48.154-27.847c4.954-2.858,7.431-6.615,7.431-10.371v-6.7l-45.309-25.71a10.644,10.644,0,0,1-4.791-8.3V260.34L164,308.943V368.3a10.575,10.575,0,0,0,4.8,8.3l37.755,22.1C216.482,404.366,232.583,404.366,242.505,398.7Z" transform="translate(-29.079 65.461)" fill="#37474f"/>
          <path id="Path_541" data-name="Path 541" d="M184.138,368.364v6.669l-15.407-8.874a10.6,10.6,0,0,1-4.791-8.3V298.5l16.02-9.242c.327,4.083.694,8.275,1.021,12.372l-11.229,6.492v46.385a10.521,10.521,0,0,0,4.791,8.3Z" transform="translate(-29.101 75.903)" fill="#263238"/>
          <path id="Path_542" data-name="Path 542" d="M168.21,362.408a10.6,10.6,0,0,0,4.791,8.3l32.039,18.633c9.922,5.73,26.01,5.73,35.945,0l48.167-27.833c9.922-5.73,9.922-14.971,0-20.742L257.1,322.107a10.575,10.575,0,0,1-4.8-8.3V267.42l-84.086,48.6Z" transform="translate(-27.559 68.017)" fill="#455a64"/>
          <path id="Path_543" data-name="Path 543" d="M266.859,327.755h0l-9.759-5.635a10.576,10.576,0,0,1-4.8-8.3v-46.4l-84.086,48.6v46.385a10.6,10.6,0,0,0,4.791,8.3l9.6,5.526Z" transform="translate(-27.559 68.017)" opacity="0.15"/>
          <path id="Path_544" data-name="Path 544" d="M281.828,329v6.7c0,3.77-2.491,7.5-7.445,10.385L226.229,373.9a36.027,36.027,0,0,1-17.149,4.26v-6.669a36.027,36.027,0,0,0,17.149-4.26l48.154-27.847C279.337,336.459,281.828,332.7,281.828,329Z" transform="translate(-12.803 90.251)" fill="#37474f"/>
          <path id="Path_545" data-name="Path 545" d="M70.491,515.428a12.889,12.889,0,0,0,11.61-.218L407.392,327.385a13.216,13.216,0,0,0,5.989-10.371V32.4a12.835,12.835,0,0,0-5.621-10.153,12.848,12.848,0,0,0-11.61.2L70.859,210.28a13.243,13.243,0,0,0-5.989,10.371V505.26A12.862,12.862,0,0,0,70.491,515.428Z" transform="translate(-64.87 -20.965)" fill="#455a64"/>
          <path id="Path_546" data-name="Path 546" d="M79.1,513.3,404.392,325.54a13.243,13.243,0,0,0,5.989-10.371V30.505c0-3.825-2.722-5.376-5.989-3.457L79.169,214.873a13.243,13.243,0,0,0-5.989,10.371v284.6C73.112,513.664,75.794,515.216,79.1,513.3Z" transform="translate(-61.87 -19.066)" fill="#37474f"/>
          <path id="Path_547" data-name="Path 547" d="M81.39,467.347V224.019a7.935,7.935,0,0,1,3.552-6.22L392.539,40.25c1.974-1.143,3.593-.218,3.593,2.069V285.661a7.894,7.894,0,0,1-3.593,6.22L84.942,469.43C83,470.573,81.39,469.647,81.39,467.347Z" transform="translate(-58.905 -14.179)" fill="#27debf"/>
          <path id="Path_548" data-name="Path 548" d="M81.39,467.347V224.019a7.935,7.935,0,0,1,3.552-6.22L392.539,40.25c1.974-1.143,3.593-.218,3.593,2.069V285.661a7.894,7.894,0,0,1-3.593,6.22L84.942,469.43C83,470.573,81.39,469.647,81.39,467.347Z" transform="translate(-58.905 -14.179)" fill="#fff" opacity="0.7"/>
          <path id="Path_549" data-name="Path 549" d="M197.559,310.884a3.539,3.539,0,0,1-1.8-.463,4.6,4.6,0,0,1-1.987-4.233,12.971,12.971,0,0,1,5.961-10.317h0a4.083,4.083,0,0,1,6.642,3.825,12.984,12.984,0,0,1-5.961,10.33,5.784,5.784,0,0,1-2.858.858Zm5.022-14.5a4.464,4.464,0,0,0-2.164.681h0a11.691,11.691,0,0,0-5.281,9.146,2.722,2.722,0,0,0,4.6,2.654,11.678,11.678,0,0,0,5.281-9.146,3.335,3.335,0,0,0-1.361-3.049,2.219,2.219,0,0,0-1.075-.286Z" transform="translate(-18.336 77.947)" fill="#27debf"/>
        </g>
      </g>
      <g id="Window-2" data-name="Window" transform="translate(129.761 49.471)">
        <path id="Path_550" data-name="Path 550" d="M435.89,73.76,119.16,256.467V489.846a4.083,4.083,0,0,0,6.057,3.512l5.648-3.253L429.983,317.633A13.053,13.053,0,0,0,435.89,307.4Z" transform="translate(-111.605 -51.375)" fill="#f0f0f0"/>
        <path id="Path_551" data-name="Path 551" d="M434.529,76.115V307.4a11.76,11.76,0,0,1-5.226,9.051L130.184,488.921l-5.648,3.253a2.627,2.627,0,0,1-1.361.367,2.723,2.723,0,0,1-1.865-.762,2.627,2.627,0,0,1-.817-1.933V257.2L434.5,76.183m1.361-2.355L119.16,256.467V489.846a4.083,4.083,0,0,0,4.083,4.083,3.932,3.932,0,0,0,2.014-.544l5.648-3.253,299.077-172.5A13.053,13.053,0,0,0,435.89,307.4V73.76Z" transform="translate(-111.605 -51.375)" fill="#e0e0e0"/>
        <path id="Path_552" data-name="Path 552" d="M430.377,70.58,113.62,253.206l7.54,4.355L437.89,74.908Z" transform="translate(-113.605 -52.523)" fill="#455a64" opacity="0.8"/>
        <path id="Path_553" data-name="Path 553" d="M123.287,446.1a4.083,4.083,0,0,1-2.123-3.566V209.155l-7.54-4.355V436.9a6.049,6.049,0,0,0,0,.857,6.261,6.261,0,0,0,3.076,4.573l6.22,3.607.313.163Z" transform="translate(-113.609 -4.063)" fill="#ebebeb"/>
        <path id="Path_554" data-name="Path 554" d="M113.62,258.1V242.357a6.546,6.546,0,0,1,2.94-5.117L427.437,58.017a6.492,6.492,0,0,1,5.88,0l1.62.939a6.506,6.506,0,0,1,2.954,5.1V79.821L121.16,262.405Z" transform="translate(-113.605 -57.313)" fill="#27debf"/>
        <path id="Path_555" data-name="Path 555" d="M113.62,258.1V242.357a6.546,6.546,0,0,1,2.94-5.117L427.437,58.017a6.492,6.492,0,0,1,5.88,0l1.62.939a6.506,6.506,0,0,1,2.954,5.1V79.821L121.16,262.405Z" transform="translate(-113.605 -57.313)" opacity="0.3"/>
        <path id="Path_556" data-name="Path 556" d="M119.16,245.477a6.533,6.533,0,0,1,2.94-5.118L432.95,61.109c1.62-.953,2.94-.191,2.94,1.688V78.6L119.16,261.183Z" transform="translate(-111.605 -56.091)" fill="#27debf"/>
        <path id="Path_557" data-name="Path 557" d="M119.16,245.477a6.533,6.533,0,0,1,2.94-5.118L432.95,61.109c1.62-.953,2.94-.191,2.94,1.688V78.6L119.16,261.183Z" transform="translate(-111.605 -56.091)" opacity="0.4"/>
        <path id="Path_558" data-name="Path 558" d="M122.014,195.472a6.084,6.084,0,0,0-.857,2.913v15.707l-7.527-4.342v-15.72a6.03,6.03,0,0,1,.857-2.9Z" transform="translate(-113.601 -8.998)" fill="#27debf"/>
        <path id="Path_559" data-name="Path 559" d="M122.014,195.472a6.084,6.084,0,0,0-.857,2.913v15.707l-7.527-4.342v-15.72a6.03,6.03,0,0,1,.857-2.9Z" transform="translate(-113.601 -8.998)" opacity="0.5"/>
        <path id="Path_560" data-name="Path 560" d="M341.71,74.7c0,1.756,1.239,2.477,2.722,1.592a6.1,6.1,0,0,0,2.722-4.791c0-1.756-1.239-2.477-2.722-1.592A6.111,6.111,0,0,0,341.71,74.7Z" transform="translate(-31.253 -52.901)" fill="#fafafa"/>
        <path id="Path_561" data-name="Path 561" d="M333.59,79.371c0,1.756,1.239,2.477,2.722,1.592a6.111,6.111,0,0,0,2.722-4.791c0-1.756-1.239-2.477-2.722-1.592A6.111,6.111,0,0,0,333.59,79.371Z" transform="translate(-34.185 -51.215)" fill="#fafafa"/>
        <path id="Path_562" data-name="Path 562" d="M325.46,84.081c0,1.756,1.239,2.477,2.722,1.592a6.111,6.111,0,0,0,2.722-4.791c0-1.756-1.239-2.477-2.722-1.592a6.1,6.1,0,0,0-2.722,4.791Z" transform="translate(-37.12 -49.515)" fill="#fafafa"/>
        <path id="Path_563" data-name="Path 563" d="M119.16,220.366V453.745a4.083,4.083,0,0,0,6.057,3.511L130.865,454l69.209-39.92V173.75Z" transform="translate(-111.605 -15.273)" fill="#001b3a"/>
        <path id="Path_564" data-name="Path 564" d="M182.67,210.9V437.531L406.318,308.408V81.78Z" transform="translate(-88.674 -48.479)" fill="#fafafa"/>
        <path id="Path_565" data-name="Path 565" d="M127.069,235.181l-1.157.667s-.122,0-.122-.1v-3.13a.313.313,0,0,1,.123-.245l1.157-.667s.122,0,.122.1v3.13A.313.313,0,0,1,127.069,235.181Z" transform="translate(-109.211 5.653)" fill="#455a64"/>
        <path id="Path_566" data-name="Path 566" d="M128.339,234.43l-1.157.667c-.068,0-.122,0-.122-.1v-3.13a.286.286,0,0,1,.122-.231l1.157-.64c.068,0,.122,0,.122.082v3.144A.3.3,0,0,1,128.339,234.43Z" transform="translate(-108.752 5.397)" fill="#455a64"/>
        <path id="Path_567" data-name="Path 567" d="M129.619,233.7l-1.157.681c-.068,0-.122,0-.122-.1v-3.144a.3.3,0,0,1,.122-.231l1.157-.667c.068,0,.123,0,.123.1v3.13a.259.259,0,0,1-.123.231Z" transform="translate(-108.29 5.122)" fill="#455a64"/>
        <path id="Path_568" data-name="Path 568" d="M127.069,238.151l-1.157.667s-.122,0-.122-.1v-3.13a.313.313,0,0,1,.123-.245l1.157-.667s.122,0,.122.1v3.13A.313.313,0,0,1,127.069,238.151Z" transform="translate(-109.211 6.725)" fill="#455a64"/>
        <path id="Path_569" data-name="Path 569" d="M128.339,237.389l-1.157.667c-.068,0-.122,0-.122-.1v-3.13a.286.286,0,0,1,.122-.231l1.157-.6c.068,0,.122,0,.122.082v3.144A.3.3,0,0,1,128.339,237.389Z" transform="translate(-108.752 6.48)" fill="#455a64"/>
        <path id="Path_570" data-name="Path 570" d="M129.619,236.667l-1.157.681c-.068,0-.122,0-.122-.1v-3.144a.3.3,0,0,1,.122-.231l1.157-.667c.068,0,.123,0,.123.1v3.13a.259.259,0,0,1-.123.231Z" transform="translate(-108.29 6.195)" fill="#455a64"/>
        <path id="Path_571" data-name="Path 571" d="M127.221,246.057l-1.361-.857v-.259l1.361-2.518a.088.088,0,0,1,.177,0v3.389C127.412,245.962,127.289,246.1,127.221,246.057Z" transform="translate(-109.186 9.49)" fill="#455a64"/>
        <path id="Path_572" data-name="Path 572" d="M126.5,243.945l1.878-1.075v.885l-1.878,1.089c-.15.1-.286,0-.286-.286a.8.8,0,0,1,.286-.612Z" transform="translate(-109.059 9.682)" fill="#455a64"/>
        <path id="Path_573" data-name="Path 573" d="M128.06,242.817l.64-.367v.885l-.64.367Z" transform="translate(-108.391 9.531)" fill="#455a64"/>
        <path id="Path_574" data-name="Path 574" d="M130.165,242.074v3.28a.722.722,0,0,1-.3.613c-.15.1-.286,0-.286-.272v-2.831l-.789.449v-.885l1.075-.626C130.029,241.761,130.165,241.884,130.165,242.074Z" transform="translate(-108.128 9.294)" fill="#455a64"/>
        <path id="Path_575" data-name="Path 575" d="M127.805,250.568a6.179,6.179,0,0,0-1.973,5.308c.231,1.7,1.239,1.633,1.361,2.423,0,.1.068.122.122.1l1.266-.721a.34.34,0,0,0,.136-.231c.136-1.048,1.429-2.314,1.429-4.859C130.16,250.636,129.085,249.683,127.805,250.568Z" transform="translate(-109.212 12.342)" fill="#455a64"/>
        <path id="Path_576" data-name="Path 576" d="M128.195,257.608l-1.225.708c-.082,0-.15,0-.15-.122v-1.116a.381.381,0,0,1,.15-.3l1.225-.708c.082,0,.15,0,.15.122v1.143A.367.367,0,0,1,128.195,257.608Z" transform="translate(-108.839 14.448)" fill="#455a64"/>
        <path id="Path_577" data-name="Path 577" d="M128.1,231.154a7.431,7.431,0,0,0-2.219,4.709,4.981,4.981,0,0,0,.313,2.559l-.408,2.151c0,.177,0,.259.163.15l1.239-1.361a1.919,1.919,0,0,0,1.8-.517,7.431,7.431,0,0,0,2.219-4.709C131.52,231.154,129.941,229.671,128.1,231.154Zm.436,7.023c-1.13.653-2.055-.231-2.055-1.987a5.444,5.444,0,0,1,2.055-4.355c1.143-.653,2.069.231,2.069,1.987a5.444,5.444,0,0,1-2.069,4.383Z" transform="translate(-109.211 5.242)" fill="#455a64"/>
        <path id="Path_578" data-name="Path 578" d="M128.1,261.527a7.39,7.39,0,0,0-2.219,4.7,5.009,5.009,0,0,0,.313,2.572l-.408,2.137c0,.177,0,.272.163.163l1.239-1.361a1.919,1.919,0,0,0,1.8-.517,7.472,7.472,0,0,0,2.219-4.709C131.52,261.527,129.941,260.017,128.1,261.527Zm.436,7.023c-1.13.653-2.055-.231-2.055-1.987a5.444,5.444,0,0,1,2.055-4.355c1.143-.653,2.069.231,2.069,1.987A5.444,5.444,0,0,1,128.539,268.55Z" transform="translate(-109.211 16.204)" fill="#455a64"/>
        <path id="Path_579" data-name="Path 579" d="M129.348,272.8a2.858,2.858,0,0,1-1.089,2.3c-.6.354-1.089-.122-1.089-1.048a2.9,2.9,0,0,1,1.089-2.3C128.858,271.409,129.348,271.872,129.348,272.8Z" transform="translate(-108.713 20.069)" fill="#455a64"/>
        <path id="Path_580" data-name="Path 580" d="M130.526,272.934a1.919,1.919,0,0,1-.721,1.538c-.408.231-.735-.082-.735-.694a1.905,1.905,0,0,1,.735-1.538C130.2,272.009,130.526,272.322,130.526,272.934Z" transform="translate(-108.027 20.259)" fill="#455a64"/>
        <path id="Path_581" data-name="Path 581" d="M129.6,278.434,127,279.9V276.61a2.246,2.246,0,0,1,.939-1.783l.708-.408c.5-.286.926,0,.926.708Z" transform="translate(-108.774 21.034)" fill="#455a64"/>
        <path id="Path_582" data-name="Path 582" d="M129.878,274.159l-.708.408v3.743l1.361-.776v-2.913C130.5,274.159,130.218,273.969,129.878,274.159Z" transform="translate(-107.99 20.953)" fill="#455a64"/>
        <path id="Path_583" data-name="Path 583" d="M125.8,275.668c0,.612.327.926.721.694a1.905,1.905,0,0,0,.721-1.524c0-.626-.327-.939-.721-.708A1.946,1.946,0,0,0,125.8,275.668Z" transform="translate(-109.207 20.941)" fill="#455a64"/>
        <path id="Path_584" data-name="Path 584" d="M126.427,276.228l.694-.408v3.757l-1.361.762v-2.913A1.484,1.484,0,0,1,126.427,276.228Z" transform="translate(-109.222 21.579)" fill="#455a64"/>
        <path id="Path_585" data-name="Path 585" d="M135.39,233.56l30.243-17.5c.817-.476,1.47-.136,1.47.749a3.158,3.158,0,0,1-1.47,2.45l-30.243,17.5c-.817.463-1.47.136-1.47-.749a3.158,3.158,0,0,1,1.47-2.45Z" transform="translate(-106.275 -0.076)" fill="#e0e0e0"/>
        <path id="Path_586" data-name="Path 586" d="M135.39,243.994l30.229-17.449c.817-.463,1.47-.136,1.47.749a3.158,3.158,0,0,1-1.47,2.45L135.39,247.193c-.817.463-1.47.136-1.47-.749A3.158,3.158,0,0,1,135.39,243.994Z" transform="translate(-106.275 3.713)" fill="#e0e0e0"/>
        <path id="Path_587" data-name="Path 587" d="M135.39,254.438l30.243-17.381c.817-.476,1.47-.136,1.47.735a3.144,3.144,0,0,1-1.47,2.45L135.39,257.623c-.817.476-1.47.136-1.47-.749A3.13,3.13,0,0,1,135.39,254.438Z" transform="translate(-106.275 7.506)" fill="#e0e0e0"/>
        <path id="Path_588" data-name="Path 588" d="M135.39,264.906l30.229-17.449c.817-.476,1.47-.136,1.47.749a3.13,3.13,0,0,1-1.47,2.436L135.39,268.1c-.817.463-1.47.136-1.47-.749A3.144,3.144,0,0,1,135.39,264.906Z" transform="translate(-106.275 11.261)" fill="#e0e0e0"/>
        <path id="Path_589" data-name="Path 589" d="M135.39,275.354l30.229-17.449c.817-.463,1.47-.136,1.47.749a3.158,3.158,0,0,1-1.47,2.45L135.39,278.526c-.817.463-1.47.136-1.47-.749a3.157,3.157,0,0,1,1.47-2.423Z" transform="translate(-106.275 15.035)" fill="#e0e0e0"/>
        <path id="Path_590" data-name="Path 590" d="M139.46,283.9l30.229-17.449c.817-.476,1.47-.136,1.47.735a3.144,3.144,0,0,1-1.47,2.45L139.46,287.081c-.817.476-1.47.136-1.47-.735A3.144,3.144,0,0,1,139.46,283.9Z" transform="translate(-104.806 18.117)" fill="#455a64"/>
        <path id="Path_591" data-name="Path 591" d="M139.46,290.956l30.229-17.449c.817-.476,1.47-.136,1.47.749a3.13,3.13,0,0,1-1.47,2.436L139.46,294.141c-.817.476-1.47.136-1.47-.735a3.144,3.144,0,0,1,1.47-2.45Z" transform="translate(-104.806 20.666)" fill="#e0e0e0"/>
        <path id="Path_592" data-name="Path 592" d="M139.46,298.016l30.229-17.449c.817-.476,1.47-.136,1.47.749a3.13,3.13,0,0,1-1.47,2.436L139.46,301.214c-.817.463-1.47.136-1.47-.749A3.158,3.158,0,0,1,139.46,298.016Z" transform="translate(-104.806 23.215)" fill="#e0e0e0"/>
        <path id="Path_593" data-name="Path 593" d="M143.78,302.506l30.229-17.449c.817-.476,1.47-.136,1.47.735a3.144,3.144,0,0,1-1.47,2.45L143.78,305.691c-.8.476-1.47.136-1.47-.735a3.171,3.171,0,0,1,1.47-2.45Z" transform="translate(-103.246 24.836)" fill="#e0e0e0"/>
        <path id="Path_594" data-name="Path 594" d="M138.276,305.554l2.463-4.328c.1-.163.1-.381,0-.435l-2.463-1.5c-.109-.068-.286.15-.286.381V305.5C138,305.7,138.167,305.772,138.276,305.554Z" transform="translate(-104.806 30.049)" fill="#455a64"/>
        <path id="Path_595" data-name="Path 595" d="M143.78,309.545l30.229-17.49c.817-.463,1.47-.136,1.47.749a3.157,3.157,0,0,1-1.47,2.45l-30.229,17.49c-.8.476-1.47.136-1.47-.749a3.2,3.2,0,0,1,1.47-2.45Z" transform="translate(-103.246 27.365)" fill="#e0e0e0"/>
        <path id="Path_596" data-name="Path 596" d="M138.276,312.6l2.463-4.328c.1-.163.1-.381,0-.449l-2.463-1.5c-.109-.068-.286.163-.286.395v5.825C138,312.775,138.167,312.8,138.276,312.6Z" transform="translate(-104.806 32.588)" fill="#455a64"/>
        <path id="Path_597" data-name="Path 597" d="M143.78,316.576l30.229-17.449c.817-.476,1.47-.136,1.47.748a3.158,3.158,0,0,1-1.47,2.45L143.78,319.774c-.8.463-1.47.136-1.47-.749A3.2,3.2,0,0,1,143.78,316.576Z" transform="translate(-103.246 29.916)" fill="#e0e0e0"/>
        <path id="Path_598" data-name="Path 598" d="M138.276,319.668l2.463-4.342c.1-.163.1-.381,0-.435l-2.463-1.5c-.109-.068-.286.163-.286.395v5.825C138,319.8,138.167,319.831,138.276,319.668Z" transform="translate(-104.806 35.14)" fill="#455a64"/>
        <path id="Path_599" data-name="Path 599" d="M143.78,323.616l30.229-17.449c.817-.476,1.47-.136,1.47.735a3.144,3.144,0,0,1-1.47,2.45L143.78,326.8c-.8.476-1.47.136-1.47-.735a3.171,3.171,0,0,1,1.47-2.45Z" transform="translate(-103.246 32.458)" fill="#e0e0e0"/>
        <path id="Path_600" data-name="Path 600" d="M138.276,326.665l2.463-4.328c.1-.163.1-.381,0-.436l-2.463-1.5c-.109-.082-.286.15-.286.381v5.88C138,326.842,138.167,326.883,138.276,326.665Z" transform="translate(-104.806 37.67)" fill="#455a64"/>
        <path id="Path_601" data-name="Path 601" d="M143.78,330.684l30.229-17.449c.817-.463,1.47-.136,1.47.749a3.157,3.157,0,0,1-1.47,2.45L143.78,333.883c-.8.463-1.47.136-1.47-.749A3.2,3.2,0,0,1,143.78,330.684Z" transform="translate(-103.246 35.012)" fill="#e0e0e0"/>
        <path id="Path_602" data-name="Path 602" d="M138.276,333.668l2.463-4.328c.1-.163.1-.381,0-.449l-2.463-1.5c-.109-.068-.286.163-.286.395v5.88C138,333.9,138.167,333.926,138.276,333.668Z" transform="translate(-104.806 40.195)" fill="#455a64"/>
        <path id="Path_603" data-name="Path 603" d="M143.78,337.686l30.229-17.449c.817-.476,1.47-.136,1.47.749a3.131,3.131,0,0,1-1.47,2.436L143.78,340.884c-.8.463-1.47.136-1.47-.749A3.2,3.2,0,0,1,143.78,337.686Z" transform="translate(-103.246 37.538)" fill="#e0e0e0"/>
        <path id="Path_604" data-name="Path 604" d="M138.276,340.748l2.463-4.342c.1-.163.1-.381,0-.436l-2.463-1.5c-.109-.068-.286.163-.286.395v5.771C138,340.925,138.167,340.952,138.276,340.748Z" transform="translate(-104.806 42.751)" fill="#455a64"/>
        <path id="Path_605" data-name="Path 605" d="M143.78,344.686l30.229-17.449c.817-.476,1.47-.136,1.47.735a3.144,3.144,0,0,1-1.47,2.45L143.78,347.871c-.8.476-1.47.136-1.47-.749a3.171,3.171,0,0,1,1.47-2.436Z" transform="translate(-103.246 40.065)" fill="#e0e0e0"/>
        <path id="Path_606" data-name="Path 606" d="M138.276,347.775l2.463-4.328c.1-.163.1-.381,0-.436l-2.463-1.5c-.109-.082-.286.15-.286.381v5.825C138,347.952,138.167,347.993,138.276,347.775Z" transform="translate(-104.806 45.292)" fill="#455a64"/>
        <path id="Path_607" data-name="Path 607" d="M143.78,351.754l30.229-17.449c.817-.463,1.47-.136,1.47.749a3.158,3.158,0,0,1-1.47,2.45L143.78,354.953c-.8.463-1.47.136-1.47-.749A3.2,3.2,0,0,1,143.78,351.754Z" transform="translate(-103.246 42.62)" fill="#e0e0e0"/>
        <path id="Path_608" data-name="Path 608" d="M138.279,354.807l2.45-4.287c.1-.163.1-.381,0-.449l-2.464-1.5c-.109-.068-.286.163-.286.395v5.825C138.007,354.984,138.171,355.011,138.279,354.807Z" transform="translate(-104.81 47.842)" fill="#455a64"/>
        <path id="Path_609" data-name="Path 609" d="M188.214,222.372l99.357-57.355a3.253,3.253,0,0,0,1.47-2.545V137.143c0-.939-.667-1.361-1.47-.844L188.214,193.64a3.239,3.239,0,0,0-1.484,2.545v25.343C186.73,222.467,187.4,222.848,188.214,222.372Z" transform="translate(-87.208 -28.876)" fill="#f0f0f0"/>
        <path id="Path_610" data-name="Path 610" d="M194.246,187.354l.653-2.722-.9.517h0v-.572a.23.23,0,0,1,0-.1s0,0,0-.082l1.443-.83h0a.15.15,0,0,1,0,.082v.436a2.229,2.229,0,0,1,0,.259l-.653,2.722a.878.878,0,0,1,0,.1.15.15,0,0,1,0,.068l-.436.245h0a.109.109,0,0,1-.109-.123Z" transform="translate(-84.585 -11.728)" fill="#455a64"/>
        <path id="Path_611" data-name="Path 611" d="M196.22,183.033a.626.626,0,0,1,.395-.122.408.408,0,0,1,.272.109.667.667,0,0,1,.15.313,2.209,2.209,0,0,1,0,.449v.83a3.611,3.611,0,0,1,0,.517,2.245,2.245,0,0,1-.15.49,2.918,2.918,0,0,1-.272.436,1.864,1.864,0,0,1-.395.327.817.817,0,0,1-.395.123.463.463,0,0,1-.259-.123.571.571,0,0,1-.163-.313,2.22,2.22,0,0,1,0-.449V184.8a3.154,3.154,0,0,1,0-.517,1.673,1.673,0,0,1,.163-.5,2.193,2.193,0,0,1,.259-.422A1.483,1.483,0,0,1,196.22,183.033Zm.327,1.878v-.789a1.042,1.042,0,0,0,0-.2.408.408,0,0,0,0-.136.109.109,0,0,0-.1,0h-.15a.7.7,0,0,0-.15.136.638.638,0,0,0-.1.163,1.135,1.135,0,0,0,0,.2V185.5a.314.314,0,0,0,0,.136.136.136,0,0,0,.1,0,.231.231,0,0,0,.15,0,.491.491,0,0,0,.15-.136.4.4,0,0,0,.1-.163.572.572,0,0,0,0-.2,1.2,1.2,0,0,0-.068-.231Z" transform="translate(-84.081 -11.966)" fill="#455a64"/>
        <path id="Path_612" data-name="Path 612" d="M197.724,182.925v.354a2.059,2.059,0,0,1,0,.286.951.951,0,0,1-.082.259,1.24,1.24,0,0,1-.15.218.872.872,0,0,1-.2.177.5.5,0,0,1-.2,0,.19.19,0,0,1-.15,0,.231.231,0,0,1-.082-.15.654.654,0,0,1,0-.245v-.354a.94.94,0,0,1,0-.272.817.817,0,0,1,.082-.259.843.843,0,0,1,.15-.231.6.6,0,0,1,.2-.163.355.355,0,0,1,.2,0,.2.2,0,0,1,.15,0l.082.163a1,1,0,0,1,0,.218Zm.749-.98v-.1a.136.136,0,0,1,.068,0l.245-.15h0l-1.5,3.893v.082a.163.163,0,0,1-.068.068l-.245.136h0Zm-1.361,1.66a.449.449,0,0,0,0,.163h.1a.259.259,0,0,0,.1-.109.833.833,0,0,0,0-.2v-.3a.394.394,0,0,0,0-.163h-.1a.217.217,0,0,0-.1.122.625.625,0,0,0,0,.191,1.2,1.2,0,0,0,.014.3Zm2,.136v.354a2.073,2.073,0,0,1,0,.286,1.894,1.894,0,0,1-.082.259,1.24,1.24,0,0,1-.15.218.872.872,0,0,1-.2.177.5.5,0,0,1-.2,0,.245.245,0,0,1-.15,0,.313.313,0,0,1-.082-.163.655.655,0,0,1,0-.245v-.34a1.033,1.033,0,0,1,0-.286.817.817,0,0,1,.082-.259.843.843,0,0,1,.1-.272.6.6,0,0,1,.2-.163.5.5,0,0,1,.2,0,.2.2,0,0,1,.15,0,.463.463,0,0,1,.082.163Zm-.6.681a.4.4,0,0,0,0,.163h.1c.1,0,.068,0,.1-.109a.834.834,0,0,0,0-.2v-.3a.4.4,0,0,0,0-.163h-.1a.218.218,0,0,0-.1.122.626.626,0,0,0,0,.19,1.2,1.2,0,0,0,.014.3Z" transform="translate(-83.558 -12.403)" fill="#455a64"/>
        <path id="Path_613" data-name="Path 613" d="M195.058,181.028l-.994-1.538a19.654,19.654,0,0,0-2.355,6.356l1.606-.136A14.863,14.863,0,0,1,195.058,181.028Z" transform="translate(-85.41 -13.201)" fill="#455a64"/>
        <path id="Path_614" data-name="Path 614" d="M197.251,179.07v-2.6a11.106,11.106,0,0,0-3.811,4.083l.994,1.538A8.316,8.316,0,0,1,197.251,179.07Z" transform="translate(-84.786 -14.291)" fill="#455a64"/>
        <path id="Path_615" data-name="Path 615" d="M193.172,186.483a13.392,13.392,0,0,1,.231-2.423l-1.606.136a16.722,16.722,0,0,0-.327,3.266,11.8,11.8,0,0,0,.327,2.9l1.606-1.742a9.257,9.257,0,0,1-.231-2.137Z" transform="translate(-85.497 -11.551)" fill="#455a64"/>
        <path id="Path_616" data-name="Path 616" d="M204.041,179.983a5.444,5.444,0,0,0-2.355-3.634,3.825,3.825,0,0,0-3.811.3v2.6a2.831,2.831,0,0,1,2.817-.2,3.988,3.988,0,0,1,1.742,2.722,9.255,9.255,0,0,1,.231,2.137,13.265,13.265,0,0,1-.231,2.423,15.2,15.2,0,0,1-1.742,4.682,8.547,8.547,0,0,1-2.817,3.049,2.8,2.8,0,0,1-2.817.2,3.947,3.947,0,0,1-1.742-2.722l-1.606,1.742a5.322,5.322,0,0,0,2.355,3.634,3.784,3.784,0,0,0,3.811-.3,11.337,11.337,0,0,0,3.811-4.083,19.9,19.9,0,0,0,2.355-6.342,17.847,17.847,0,0,0,.313-3.28,12.535,12.535,0,0,0-.313-2.926Z" transform="translate(-85.41 -14.47)" fill="#27debf"/>
        <path id="Path_617" data-name="Path 617" d="M208.524,178.366l30.215-17.449c.817-.476,1.483-.136,1.483.735a3.158,3.158,0,0,1-1.483,2.45l-30.215,17.421c-.817.476-1.484.136-1.484-.735A3.158,3.158,0,0,1,208.524,178.366Z" transform="translate(-79.876 -19.985)" fill="#455a64"/>
        <path id="Path_618" data-name="Path 618" d="M208.524,186.483l52.332-30.215c.817-.476,1.47-.136,1.47.749a3.13,3.13,0,0,1-1.47,2.436l-52.332,30.215c-.817.476-1.484.136-1.484-.749a3.144,3.144,0,0,1,1.484-2.436Z" transform="translate(-79.876 -21.663)" fill="#e0e0e0"/>
        <path id="Path_619" data-name="Path 619" d="M267.39,176.646l99.357-57.355a3.267,3.267,0,0,0,1.47-2.559V91.4c0-.939-.653-1.361-1.47-.844L267.39,147.9a3.266,3.266,0,0,0-1.47,2.559v25.329C265.947,176.727,266.6,177.108,267.39,176.646Z" transform="translate(-58.617 -45.39)" fill="#f0f0f0"/>
        <path id="Path_620" data-name="Path 620" d="M273.74,139.383a1.8,1.8,0,0,1,.082-.531,1.836,1.836,0,0,1,.191-.476,2.094,2.094,0,0,1,.286-.395,1.927,1.927,0,0,1,.327-.272,1.362,1.362,0,0,1,.327-.109.49.49,0,0,1,.286.068.612.612,0,0,1,.2.245,1.361,1.361,0,0,1,.068.449,1.57,1.57,0,0,1,0,.259,1.586,1.586,0,0,1,0,.245,1.489,1.489,0,0,1-.068.231l-.082.218-.572,1.552a.191.191,0,0,0,0,.082.163.163,0,0,1-.068.068l-.476.272h0a.082.082,0,0,1,0-.068h0l.395-1.048a.68.68,0,0,1-.286,0,.354.354,0,0,1-.231-.1.558.558,0,0,1-.163-.245A1.157,1.157,0,0,1,273.74,139.383Zm1.211-.694a.5.5,0,0,0,0-.163.136.136,0,0,0-.068-.082h-.109a.218.218,0,0,0-.122,0l-.122.1-.1.15a.707.707,0,0,0-.082.177.8.8,0,0,0,0,.177.5.5,0,0,0,0,.163.087.087,0,0,0,.082.082h.1a.218.218,0,0,0,.122,0,.436.436,0,0,0,.122-.109.531.531,0,0,0,.109-.136.68.68,0,0,0,.068-.177.8.8,0,0,0,0-.177Z" transform="translate(-55.794 -28.326)" fill="#455a64"/>
        <path id="Path_621" data-name="Path 621" d="M276.1,136.863a.6.6,0,0,1,.381-.122.381.381,0,0,1,.272.109.843.843,0,0,1,.163.313,1.564,1.564,0,0,1,0,.449v.83a2.3,2.3,0,0,1,0,.517,3.441,3.441,0,0,1-.163.49,2.112,2.112,0,0,1-.272.436,1.783,1.783,0,0,1-.381.327.872.872,0,0,1-.395.122.463.463,0,0,1-.272-.122.749.749,0,0,1-.163-.313,2.1,2.1,0,0,1,0-.436v-.83a3.164,3.164,0,0,1,0-.517,3.118,3.118,0,0,1,.163-.5,1.728,1.728,0,0,1,.272-.422A1.362,1.362,0,0,1,276.1,136.863Zm.313,1.878a7.653,7.653,0,0,0,0-.789.83.83,0,0,0,0-.191.382.382,0,0,0,0-.15.136.136,0,0,0-.1,0h-.15a.491.491,0,0,0-.15.136,1.135,1.135,0,0,0-.109.163s0,.136,0,.2v.231a7.408,7.408,0,0,0,0,.776q0,.122,0,.2a.69.69,0,0,0,0,.136.123.123,0,0,0,.109,0h.15l.15-.122a.733.733,0,0,0,.1-.177,1.129,1.129,0,0,0,0-.2,1.169,1.169,0,0,0,0-.218Z" transform="translate(-55.244 -28.636)" fill="#455a64"/>
        <path id="Path_622" data-name="Path 622" d="M277.646,136.765a1.535,1.535,0,0,1,0,.354,2.021,2.021,0,0,1,0,.286,1.979,1.979,0,0,1-.1.259,1.175,1.175,0,0,1-.136.218.885.885,0,0,1-.218.177.408.408,0,0,1-.2.068.2.2,0,0,1-.136,0,.476.476,0,0,1-.1-.163,1.233,1.233,0,0,1,0-.245.668.668,0,0,1,0-.163.965.965,0,0,1,0-.191,1.85,1.85,0,0,1,0-.272,1.455,1.455,0,0,1,.1-.259.8.8,0,0,1,.136-.231,1.077,1.077,0,0,1,.2-.163.5.5,0,0,1,.218,0,.177.177,0,0,1,.136,0,.477.477,0,0,1,.1.163A1.185,1.185,0,0,1,277.646,136.765Zm.762-.98v-.1h.068l.245-.15h0l-1.484,3.893a.442.442,0,0,1,0,.082v.068l-.245.136h0Zm-1.361,1.66v.163c0,.027,0,0,.082,0a.136.136,0,0,0,.1-.109V137a.677.677,0,0,0,0-.163h-.1a.2.2,0,0,0-.082.122.572.572,0,0,0,0,.191Zm2,.136a1.539,1.539,0,0,1,0,.354,2.03,2.03,0,0,1,0,.286,1.99,1.99,0,0,1-.1.259.776.776,0,0,1-.15.218.5.5,0,0,1-.2.177.408.408,0,0,1-.2,0,.163.163,0,0,1-.136,0,.476.476,0,0,1-.1-.163,1.2,1.2,0,0,1,0-.231,1.159,1.159,0,0,1,0-.354,2.026,2.026,0,0,1,0-.286,1.458,1.458,0,0,1,.1-.259.6.6,0,0,1,.136-.218.79.79,0,0,1,.2-.177.5.5,0,0,1,.2,0,.19.19,0,0,1,.15,0,.475.475,0,0,1,.1.163,1.206,1.206,0,0,1,0,.177Zm-.6.681v.163c0,.027,0,0,.082,0a.136.136,0,0,0,.1-.109.734.734,0,0,0,0-.2,1.1,1.1,0,0,0,0-.3.394.394,0,0,0,0-.163h-.1a.2.2,0,0,0-.082.122.57.57,0,0,0,0,.191Z" transform="translate(-54.705 -29.069)" fill="#455a64"/>
        <path id="Path_623" data-name="Path 623" d="M277.111,132.95v-2.6a11.106,11.106,0,0,0-3.811,4.083l.994,1.538a8.316,8.316,0,0,1,2.817-3.022Z" transform="translate(-55.952 -30.943)" fill="#455a64"/>
        <path id="Path_624" data-name="Path 624" d="M284,133.864a5.363,5.363,0,0,0-2.355-3.634,3.784,3.784,0,0,0-3.811.3v2.6a2.8,2.8,0,0,1,2.817-.2,3.988,3.988,0,0,1,1.742,2.722,9.256,9.256,0,0,1,.231,2.137,13.394,13.394,0,0,1-.231,2.423,14.864,14.864,0,0,1-1.742,4.682,8.547,8.547,0,0,1-2.817,3.049,2.8,2.8,0,0,1-2.817.2,3.947,3.947,0,0,1-1.742-2.722,9.254,9.254,0,0,1-.231-2.137,13.268,13.268,0,0,1,.231-2.423,14.86,14.86,0,0,1,1.7-4.682l-.994-1.538a19.7,19.7,0,0,0-2.355,6.342,17.981,17.981,0,0,0-.327,3.28,12.5,12.5,0,0,0,.327,2.9,5.322,5.322,0,0,0,2.355,3.634,3.784,3.784,0,0,0,3.811-.3,11.215,11.215,0,0,0,3.811-4.083h0a20.023,20.023,0,0,0,2.355-6.342,18.072,18.072,0,0,0,.313-3.28A12.531,12.531,0,0,0,284,133.864Z" transform="translate(-56.674 -31.123)" fill="#27debf"/>
        <path id="Path_625" data-name="Path 625" d="M288.39,132.248l30.229-17.462c.8-.463,1.47-.136,1.47.749a3.171,3.171,0,0,1-1.47,2.45L288.39,135.433c-.817.476-1.47.136-1.47-.749A3.13,3.13,0,0,1,288.39,132.248Z" transform="translate(-51.035 -36.638)" fill="#455a64"/>
        <path id="Path_626" data-name="Path 626" d="M288.39,140.349l52.332-30.2c.817-.476,1.484-.136,1.484.749a3.144,3.144,0,0,1-1.484,2.436L288.39,143.547c-.817.463-1.47.136-1.47-.749A3.157,3.157,0,0,1,288.39,140.349Z" transform="translate(-51.035 -38.315)" fill="#e0e0e0"/>
        <path id="Path_627" data-name="Path 627" d="M195.64,207.9l21.205-12.249c.817-.476,1.47-.136,1.47.735a3.144,3.144,0,0,1-1.47,2.45L195.64,211.082c-.817.476-1.47.136-1.47-.749a3.13,3.13,0,0,1,1.47-2.436Z" transform="translate(-84.522 -7.445)" fill="#455a64"/>
        <path id="Path_628" data-name="Path 628" d="M396.087,126.877h0m-.626.367V289.21a1.891,1.891,0,0,1-.789,1.361L188.091,409.8V247.834a1.96,1.96,0,0,1,.8-1.361l2.572-1.484a4.614,4.614,0,0,0,2.164-3.729v-9.337a1.892,1.892,0,0,1,.789-1.361l29.657-17.122v8.711a2.219,2.219,0,0,0,2.178,2.409,2.722,2.722,0,0,0,1.361-.381l167.872-96.92M224.7,213.059h0M396,125.53a1.361,1.361,0,0,0-.653.2L226.908,222.981a1.361,1.361,0,0,1-.653.2c-.49,0-.817-.395-.817-1.048V212.76c0-.667-.34-1.048-.817-1.048a1.361,1.361,0,0,0-.653.2l-30.229,17.449a3.267,3.267,0,0,0-1.47,2.559v9.364a3.24,3.24,0,0,1-1.484,2.545l-2.572,1.5a3.239,3.239,0,0,0-1.484,2.545V410.452c0,.667.34,1.062.817,1.062a1.361,1.361,0,0,0,.667-.2l207.125-119.6a3.24,3.24,0,0,0,1.47-2.545V126.578c0-.667-.327-1.048-.817-1.048Z" transform="translate(-87.208 -32.683)" fill="#e0e0e0"/>
        <path id="Path_629" data-name="Path 629" d="M196.918,226.142a1.456,1.456,0,0,1-.721-.177,1.729,1.729,0,0,1-.776-1.552v-6.166a3.947,3.947,0,0,1,1.824-3.144l16.428-9.527a1.7,1.7,0,0,1,1.715-.109,1.728,1.728,0,0,1,.776,1.552v6.166a3.947,3.947,0,0,1-1.824,3.144l-16.414,9.527A2.069,2.069,0,0,1,196.918,226.142Zm1.007-9.854a2.532,2.532,0,0,0-1.143,1.96v6.166a.518.518,0,0,0,.1.368.531.531,0,0,0,.367-.109l16.428-9.459a2.613,2.613,0,0,0,1.13-1.974v-6.166a.517.517,0,0,0-.1-.367.531.531,0,0,0-.367.109Z" transform="translate(-84.072 -3.887)" fill="#e0e0e0"/>
        <path id="Path_630" data-name="Path 630" d="M198.26,216.914l10.711-6.206c.544-.313.98-.1.98.49a2.082,2.082,0,0,1-.98,1.633l-10.711,6.22c-.544.313-.98.082-.98-.5a2.11,2.11,0,0,1,.98-1.633Z" transform="translate(-83.399 -1.981)" fill="#e0e0e0"/>
        <path id="Path_631" data-name="Path 631" d="M207.671,210.258l.885,1.266a.16.16,0,0,0,.136-.082l.885-2.287v-.163l-1.769,1.021a.218.218,0,0,0-.136.245Z" transform="translate(-79.649 -2.553)" fill="#455a64"/>
        <path id="Path_632" data-name="Path 632" d="M195.221,264.611c.789-.449,1.361-.082,1.361.817a3.117,3.117,0,0,1-1.361,2.463c-.789.449-1.361.082-1.361-.817A3.117,3.117,0,0,1,195.221,264.611Z" transform="translate(-84.634 17.463)" fill="#27debf"/>
        <path id="Path_633" data-name="Path 633" d="M203.361,255.231c.789-.449,1.429-.082,1.429.817a3.13,3.13,0,0,1-1.429,2.463c-.776.449-1.361.082-1.361-.817A3.144,3.144,0,0,1,203.361,255.231Z" transform="translate(-81.695 14.076)" fill="#27debf"/>
        <path id="Path_634" data-name="Path 634" d="M211.489,250.541c.776-.449,1.361-.082,1.361.817a3.144,3.144,0,0,1-1.361,2.463c-.789.449-1.429.082-1.429-.817a3.131,3.131,0,0,1,1.429-2.463Z" transform="translate(-78.785 12.383)" fill="#27debf"/>
        <path id="Path_635" data-name="Path 635" d="M219.591,247.911c.789-.449,1.361-.082,1.361.817a3.117,3.117,0,0,1-1.361,2.463c-.789.449-1.361.082-1.361-.817a3.117,3.117,0,0,1,1.361-2.463Z" transform="translate(-75.835 11.433)" fill="#27debf"/>
        <path id="Path_636" data-name="Path 636" d="M227.721,239.461c.789-.449,1.361-.082,1.361.83a3.117,3.117,0,0,1-1.361,2.45c-.776.463-1.361.1-1.361-.817a3.185,3.185,0,0,1,1.361-2.464Z" transform="translate(-72.9 8.382)" fill="#27debf"/>
        <path id="Path_637" data-name="Path 637" d="M235.841,236.471c.789-.449,1.361-.082,1.361.817a3.117,3.117,0,0,1-1.361,2.463c-.789.449-1.361.082-1.361-.817a3.117,3.117,0,0,1,1.361-2.464Z" transform="translate(-69.968 7.303)" fill="#27debf"/>
        <path id="Path_638" data-name="Path 638" d="M243.961,227.053c.789-.463,1.429-.1,1.429.817a3.144,3.144,0,0,1-1.429,2.463c-.776.449-1.361.082-1.361-.83A3.144,3.144,0,0,1,243.961,227.053Z" transform="translate(-67.037 3.899)" fill="#27debf"/>
        <path id="Path_639" data-name="Path 639" d="M252.091,224.741c.776-.449,1.361-.082,1.361.83a3.144,3.144,0,0,1-1.361,2.45c-.789.463-1.361.1-1.361-.817a3.144,3.144,0,0,1,1.361-2.463Z" transform="translate(-64.101 3.068)" fill="#27debf"/>
        <path id="Path_640" data-name="Path 640" d="M260.211,198.941c.789-.449,1.361-.082,1.361.83a3.171,3.171,0,0,1-1.361,2.463c-.789.449-1.361.082-1.361-.83a3.157,3.157,0,0,1,1.361-2.463Z" transform="translate(-61.17 -6.247)" fill="#27debf"/>
        <path id="Path_641" data-name="Path 641" d="M268.379,213.053c.776-.463,1.361-.1,1.361.817a3.185,3.185,0,0,1-1.361,2.464c-.789.449-1.429.082-1.429-.83a3.116,3.116,0,0,1,1.429-2.45Z" transform="translate(-58.245 -1.155)" fill="#27debf"/>
        <path id="Path_642" data-name="Path 642" d="M276.461,213.053c.789-.463,1.361-.1,1.361.817a3.158,3.158,0,0,1-1.361,2.464c-.789.449-1.361.082-1.361-.83a3.1,3.1,0,0,1,1.361-2.45Z" transform="translate(-55.303 -1.155)" fill="#27debf"/>
        <path id="Path_643" data-name="Path 643" d="M284.581,213.053c.789-.463,1.361-.1,1.361.817a3.171,3.171,0,0,1-1.361,2.464c-.776.449-1.361.082-1.361-.83A3.144,3.144,0,0,1,284.581,213.053Z" transform="translate(-52.371 -1.155)" fill="#27debf"/>
        <path id="Path_644" data-name="Path 644" d="M292.729,198.953c.776-.463,1.361-.1,1.361.817a3.185,3.185,0,0,1-1.361,2.463c-.789.449-1.429.082-1.429-.83a3.117,3.117,0,0,1,1.429-2.45Z" transform="translate(-49.453 -6.246)" fill="#27debf"/>
        <path id="Path_645" data-name="Path 645" d="M300.831,196.251c.789-.449,1.361-.082,1.361.817a3.117,3.117,0,0,1-1.361,2.464c-.789.449-1.361.082-1.361-.817A3.117,3.117,0,0,1,300.831,196.251Z" transform="translate(-46.504 -7.219)" fill="#27debf"/>
        <path id="Path_646" data-name="Path 646" d="M308.981,184.871c.789-.449,1.429-.082,1.429.83a3.116,3.116,0,0,1-1.429,2.45c-.776.463-1.361.1-1.361-.817a3.184,3.184,0,0,1,1.361-2.463Z" transform="translate(-43.561 -11.327)" fill="#27debf"/>
        <ellipse id="Ellipse_20" data-name="Ellipse 20" cx="2.014" cy="1.157" rx="2.014" ry="1.157" transform="translate(274.446 176.378) rotate(-60)" fill="#27debf"/>
        <ellipse id="Ellipse_21" data-name="Ellipse 21" cx="2.014" cy="1.157" rx="2.014" ry="1.157" transform="translate(285.511 176.375) rotate(-60)" fill="#27debf"/>
        <path id="Path_647" data-name="Path 647" d="M333.379,180.181c.776-.449,1.361-.082,1.361.83a3.144,3.144,0,0,1-1.361,2.45c-.789.463-1.429.1-1.429-.817A3.171,3.171,0,0,1,333.379,180.181Z" transform="translate(-34.777 -13.021)" fill="#27debf"/>
        <path id="Path_648" data-name="Path 648" d="M194.928,296.651a.368.368,0,0,1-.231-.082.354.354,0,0,1,0-.49l11.161-12.821.1-.082,10.97-6.329,11.038-3.58,11-11.446.136-.082,10.97-4.083,11-12.7a.573.573,0,0,1,.163-.109l10.888-3.144,10.97-34.884a.354.354,0,0,1,.286-.245.368.368,0,0,1,.34.177l10.956,18.973h21.777l10.9-18.905a.327.327,0,0,1,.191-.163l10.956-3.634,10.984-15.393a.368.368,0,0,1,.286-.136h22.022l10.97-6.342a.339.339,0,1,1,.34.585l-11.052,6.4a.381.381,0,0,1-.177,0h-21.94l-10.956,15.339a.3.3,0,0,1-.163.122l-10.888,3.634-11,19.055a.354.354,0,0,1-.3.163H294.5a.354.354,0,0,1-.286-.163L283.546,207.8l-10.82,34.407a.4.4,0,0,1-.231.231l-10.97,3.158L250.54,258.3l-.136.1-11,4.083-11,11.446a.285.285,0,0,1-.136.082l-11.065,3.58-10.888,6.288-11.174,12.7A.34.34,0,0,1,194.928,296.651Z" transform="translate(-84.368 -12.617)" fill="#27debf"/>
        <path id="Path_649" data-name="Path 649" d="M195.04,300.142a.68.68,0,0,1-.585-.34.694.694,0,0,1,.245-.939L382.674,190.346a.681.681,0,0,1,.68,1.171L195.38,299.992A.639.639,0,0,1,195.04,300.142Z" transform="translate(-84.453 -9.303)" fill="#e0e0e0"/>
        <path id="Path_650" data-name="Path 650" d="M195.221,259.921c.789-.449,1.361-.082,1.361.817a3.117,3.117,0,0,1-1.361,2.464c-.789.449-1.361.082-1.361-.817a3.117,3.117,0,0,1,1.361-2.463Z" transform="translate(-84.634 15.769)" fill="#27debf"/>
        <path id="Path_651" data-name="Path 651" d="M203.361,245.851c.789-.449,1.429-.082,1.429.817a3.13,3.13,0,0,1-1.429,2.464c-.776.449-1.361.082-1.361-.817A3.144,3.144,0,0,1,203.361,245.851Z" transform="translate(-81.695 10.689)" fill="#27debf"/>
        <ellipse id="Ellipse_22" data-name="Ellipse 22" cx="2.014" cy="1.157" rx="2.014" ry="1.157" transform="translate(130.707 256.968) rotate(-60)" fill="#27debf"/>
        <path id="Path_652" data-name="Path 652" d="M219.591,227.053c.789-.463,1.361-.1,1.361.817a3.13,3.13,0,0,1-1.361,2.463c-.789.449-1.361.082-1.361-.83a3.1,3.1,0,0,1,1.361-2.45Z" transform="translate(-75.835 3.899)" fill="#27debf"/>
        <path id="Path_653" data-name="Path 653" d="M227.721,231.781c.789-.449,1.361-.082,1.361.817a3.131,3.131,0,0,1-1.361,2.464c-.776.449-1.361.082-1.361-.817A3.144,3.144,0,0,1,227.721,231.781Z" transform="translate(-72.9 5.609)" fill="#27debf"/>
        <path id="Path_654" data-name="Path 654" d="M235.841,229.431c.789-.449,1.361-.082,1.361.83a3.1,3.1,0,0,1-1.361,2.45c-.789.463-1.361.1-1.361-.817a3.158,3.158,0,0,1,1.361-2.463Z" transform="translate(-69.968 4.761)" fill="#27debf"/>
        <path id="Path_655" data-name="Path 655" d="M243.961,222.4c.789-.463,1.429-.1,1.429.817a3.144,3.144,0,0,1-1.429,2.464c-.776.449-1.361.082-1.361-.817A3.144,3.144,0,0,1,243.961,222.4Z" transform="translate(-67.037 2.221)" fill="#27debf"/>
        <path id="Path_656" data-name="Path 656" d="M252.091,213.053c.776-.463,1.361-.1,1.361.817a3.185,3.185,0,0,1-1.361,2.464c-.789.449-1.361.082-1.361-.83a3.116,3.116,0,0,1,1.361-2.45Z" transform="translate(-64.101 -1.155)" fill="#27debf"/>
        <path id="Path_657" data-name="Path 657" d="M260.211,210.671c.789-.449,1.361-.082,1.361.817a3.13,3.13,0,0,1-1.361,2.464c-.789.449-1.361.082-1.361-.817A3.117,3.117,0,0,1,260.211,210.671Z" transform="translate(-61.17 -2.012)" fill="#27debf"/>
        <path id="Path_658" data-name="Path 658" d="M268.361,203.643c.789-.463,1.361-.1,1.361.817a3.171,3.171,0,0,1-1.361,2.464c-.776.449-1.361.082-1.361-.83A3.144,3.144,0,0,1,268.361,203.643Z" transform="translate(-58.227 -4.553)" fill="#27debf"/>
        <path id="Path_659" data-name="Path 659" d="M276.461,203.643c.789-.463,1.361-.1,1.361.817a3.158,3.158,0,0,1-1.361,2.464c-.789.449-1.361.082-1.361-.83A3.1,3.1,0,0,1,276.461,203.643Z" transform="translate(-55.303 -4.553)" fill="#27debf"/>
        <path id="Path_660" data-name="Path 660" d="M284.581,184.871c.789-.449,1.361-.082,1.361.83a3.117,3.117,0,0,1-1.361,2.45c-.776.463-1.361.1-1.361-.817A3.185,3.185,0,0,1,284.581,184.871Z" transform="translate(-52.371 -11.327)" fill="#27debf"/>
        <path id="Path_661" data-name="Path 661" d="M292.729,194.191c.776-.449,1.361-.1,1.361.817a3.144,3.144,0,0,1-1.361,2.463c-.789.449-1.429.082-1.429-.817a3.131,3.131,0,0,1,1.429-2.464Z" transform="translate(-49.453 -7.963)" fill="#27debf"/>
        <path id="Path_662" data-name="Path 662" d="M300.831,184.871c.789-.449,1.361-.082,1.361.83a3.117,3.117,0,0,1-1.361,2.45c-.789.463-1.361.1-1.361-.817a3.158,3.158,0,0,1,1.361-2.463Z" transform="translate(-46.504 -11.327)" fill="#27debf"/>
        <path id="Path_663" data-name="Path 663" d="M308.979,180.181c.776-.449,1.361-.082,1.361.83a3.144,3.144,0,0,1-1.361,2.45c-.789.463-1.429.1-1.429-.817A3.171,3.171,0,0,1,308.979,180.181Z" transform="translate(-43.586 -13.021)" fill="#27debf"/>
        <path id="Path_664" data-name="Path 664" d="M317.081,180.181c.789-.449,1.361-.082,1.361.83a3.1,3.1,0,0,1-1.361,2.45c-.789.463-1.361.1-1.361-.817a3.158,3.158,0,0,1,1.361-2.463Z" transform="translate(-40.637 -13.021)" fill="#27debf"/>
        <path id="Path_665" data-name="Path 665" d="M325.2,175.491c.789-.449,1.429-.082,1.429.83a3.117,3.117,0,0,1-1.429,2.45c-.776.463-1.361.1-1.361-.817A3.185,3.185,0,0,1,325.2,175.491Z" transform="translate(-37.705 -14.714)" fill="#27debf"/>
        <path id="Path_666" data-name="Path 666" d="M333.379,175.491c.776-.449,1.361-.082,1.361.83a3.144,3.144,0,0,1-1.361,2.45c-.789.463-1.429.1-1.429-.817a3.171,3.171,0,0,1,1.429-2.463Z" transform="translate(-34.777 -14.714)" fill="#27debf"/>
        <path id="Path_667" data-name="Path 667" d="M194.951,291.971a.3.3,0,0,1-.177,0,.34.34,0,0,1-.122-.463l11.133-19.191a.313.313,0,0,1,.231-.163l10.807-2.314,10.984-23a.354.354,0,0,1,.218-.177.327.327,0,0,1,.272,0l10.888,6.315,10.888-3.144,10.984-9.527L272.1,227.566a.272.272,0,0,1,.163-.109l10.984-3.171,11-9.527a.341.341,0,0,1,.231-.082H305.36l10.916-25.329a.381.381,0,0,1,.272-.2.327.327,0,0,1,.3.122l10.807,12.467,10.793-12.467a.271.271,0,0,1,.1-.082l11.093-6.4a.259.259,0,0,1,.163,0h10.97l10.888-6.315a.367.367,0,0,1,.163,0h11.147a.34.34,0,0,1,0,.681H372l-10.888,6.315H349.975L339,189.8l-11.011,12.726a.354.354,0,0,1-.517,0l-10.711-12.358-10.888,25.043a.34.34,0,0,1-.313.2H294.676l-11.065,9.418h-.136l-10.956,3.158-11.011,12.7L250.428,250.3l-.123.068-11.052,3.2a.3.3,0,0,1-.259,0l-10.752-6.206-10.888,22.825a.286.286,0,0,1-.231.177l-10.888,2.314-11.065,19.055A.327.327,0,0,1,194.951,291.971Z" transform="translate(-84.365 -14.294)" fill="#27debf"/>
        <g id="Group_132" data-name="Group 132" transform="translate(109.226 160.585)" opacity="0.3">
          <path id="Path_668" data-name="Path 668" d="M195.221,259.921c.789-.449,1.361-.082,1.361.817a3.117,3.117,0,0,1-1.361,2.464c-.789.449-1.361.082-1.361-.817a3.117,3.117,0,0,1,1.361-2.463Z" transform="translate(-193.86 -144.816)"/>
          <path id="Path_669" data-name="Path 669" d="M203.361,245.851c.789-.449,1.429-.082,1.429.817a3.13,3.13,0,0,1-1.429,2.464c-.776.449-1.361.082-1.361-.817A3.144,3.144,0,0,1,203.361,245.851Z" transform="translate(-190.921 -149.896)"/>
          <ellipse id="Ellipse_23" data-name="Ellipse 23" cx="2.014" cy="1.157" rx="2.014" ry="1.157" transform="translate(21.481 96.382) rotate(-60)"/>
          <path id="Path_670" data-name="Path 670" d="M219.591,227.053c.789-.463,1.361-.1,1.361.817a3.13,3.13,0,0,1-1.361,2.463c-.789.449-1.361.082-1.361-.83a3.1,3.1,0,0,1,1.361-2.45Z" transform="translate(-185.061 -156.686)"/>
          <path id="Path_671" data-name="Path 671" d="M227.721,231.781c.789-.449,1.361-.082,1.361.817a3.131,3.131,0,0,1-1.361,2.464c-.776.449-1.361.082-1.361-.817A3.144,3.144,0,0,1,227.721,231.781Z" transform="translate(-182.126 -154.976)"/>
          <path id="Path_672" data-name="Path 672" d="M235.841,229.431c.789-.449,1.361-.082,1.361.83a3.1,3.1,0,0,1-1.361,2.45c-.789.463-1.361.1-1.361-.817a3.158,3.158,0,0,1,1.361-2.463Z" transform="translate(-179.194 -155.824)"/>
          <path id="Path_673" data-name="Path 673" d="M243.961,222.4c.789-.463,1.429-.1,1.429.817a3.144,3.144,0,0,1-1.429,2.464c-.776.449-1.361.082-1.361-.817A3.144,3.144,0,0,1,243.961,222.4Z" transform="translate(-176.262 -158.365)"/>
          <path id="Path_674" data-name="Path 674" d="M252.091,213.053c.776-.463,1.361-.1,1.361.817a3.185,3.185,0,0,1-1.361,2.464c-.789.449-1.361.082-1.361-.83a3.116,3.116,0,0,1,1.361-2.45Z" transform="translate(-173.327 -161.741)"/>
          <path id="Path_675" data-name="Path 675" d="M260.211,210.671c.789-.449,1.361-.082,1.361.817a3.13,3.13,0,0,1-1.361,2.464c-.789.449-1.361.082-1.361-.817A3.117,3.117,0,0,1,260.211,210.671Z" transform="translate(-170.395 -162.598)"/>
          <path id="Path_676" data-name="Path 676" d="M268.361,203.643c.789-.463,1.361-.1,1.361.817a3.171,3.171,0,0,1-1.361,2.464c-.776.449-1.361.082-1.361-.83A3.144,3.144,0,0,1,268.361,203.643Z" transform="translate(-167.453 -165.138)"/>
          <path id="Path_677" data-name="Path 677" d="M276.461,203.643c.789-.463,1.361-.1,1.361.817a3.158,3.158,0,0,1-1.361,2.464c-.789.449-1.361.082-1.361-.83A3.1,3.1,0,0,1,276.461,203.643Z" transform="translate(-164.528 -165.138)"/>
          <path id="Path_678" data-name="Path 678" d="M284.581,184.871c.789-.449,1.361-.082,1.361.83a3.117,3.117,0,0,1-1.361,2.45c-.776.463-1.361.1-1.361-.817A3.185,3.185,0,0,1,284.581,184.871Z" transform="translate(-161.597 -171.913)"/>
          <path id="Path_679" data-name="Path 679" d="M292.729,194.191c.776-.449,1.361-.1,1.361.817a3.144,3.144,0,0,1-1.361,2.463c-.789.449-1.429.082-1.429-.817a3.131,3.131,0,0,1,1.429-2.464Z" transform="translate(-158.679 -168.549)"/>
          <path id="Path_680" data-name="Path 680" d="M300.831,184.871c.789-.449,1.361-.082,1.361.83a3.117,3.117,0,0,1-1.361,2.45c-.789.463-1.361.1-1.361-.817a3.158,3.158,0,0,1,1.361-2.463Z" transform="translate(-155.73 -171.913)"/>
          <path id="Path_681" data-name="Path 681" d="M308.979,180.181c.776-.449,1.361-.082,1.361.83a3.144,3.144,0,0,1-1.361,2.45c-.789.463-1.429.1-1.429-.817A3.171,3.171,0,0,1,308.979,180.181Z" transform="translate(-152.812 -173.606)"/>
          <path id="Path_682" data-name="Path 682" d="M317.081,180.181c.789-.449,1.361-.082,1.361.83a3.1,3.1,0,0,1-1.361,2.45c-.789.463-1.361.1-1.361-.817a3.158,3.158,0,0,1,1.361-2.463Z" transform="translate(-149.862 -173.606)"/>
          <path id="Path_683" data-name="Path 683" d="M325.2,175.491c.789-.449,1.429-.082,1.429.83a3.117,3.117,0,0,1-1.429,2.45c-.776.463-1.361.1-1.361-.817A3.185,3.185,0,0,1,325.2,175.491Z" transform="translate(-146.931 -175.299)"/>
          <path id="Path_684" data-name="Path 684" d="M333.379,175.491c.776-.449,1.361-.082,1.361.83a3.144,3.144,0,0,1-1.361,2.45c-.789.463-1.429.1-1.429-.817a3.171,3.171,0,0,1,1.429-2.463Z" transform="translate(-144.003 -175.299)"/>
          <path id="Path_685" data-name="Path 685" d="M194.951,291.971a.3.3,0,0,1-.177,0,.34.34,0,0,1-.122-.463l11.133-19.191a.313.313,0,0,1,.231-.163l10.807-2.314,10.984-23a.354.354,0,0,1,.218-.177.327.327,0,0,1,.272,0l10.888,6.315,10.888-3.144,10.984-9.527L272.1,227.566a.272.272,0,0,1,.163-.109l10.984-3.171,11-9.527a.341.341,0,0,1,.231-.082H305.36l10.916-25.329a.381.381,0,0,1,.272-.2.327.327,0,0,1,.3.122l10.807,12.467,10.793-12.467a.271.271,0,0,1,.1-.082l11.093-6.4a.259.259,0,0,1,.163,0h10.97l10.888-6.315a.367.367,0,0,1,.163,0h11.147a.34.34,0,0,1,0,.681H372l-10.888,6.315H349.975L339,189.8l-11.011,12.726a.354.354,0,0,1-.517,0l-10.711-12.358-10.888,25.043a.34.34,0,0,1-.313.2H294.676l-11.065,9.418h-.136l-10.956,3.158-11.011,12.7L250.428,250.3l-.123.068-11.052,3.2a.3.3,0,0,1-.259,0l-10.752-6.206-10.888,22.825a.286.286,0,0,1-.231.177l-10.888,2.314-11.065,19.055A.327.327,0,0,1,194.951,291.971Z" transform="translate(-193.59 -174.879)"/>
        </g>
        <path id="Path_686" data-name="Path 686" d="M199.363,226.758l10.739-6.22c.544-.313.98-.1.98.5a2.082,2.082,0,0,1-.98,1.62l-10.711,6.22c-.531.313-.98.1-.98-.5A2.123,2.123,0,0,1,199.363,226.758Z" transform="translate(-82.991 1.568)" fill="#e0e0e0"/>
        <path id="Path_687" data-name="Path 687" d="M195.239,227.053c.789-.463,1.361-.1,1.361.817a3.117,3.117,0,0,1-1.361,2.463c-.789.449-1.429.082-1.429-.817A3.131,3.131,0,0,1,195.239,227.053Z" transform="translate(-84.652 3.899)" fill="#27debf"/>
        <path id="Path_688" data-name="Path 688" d="M195.239,227.053c.789-.463,1.361-.1,1.361.817a3.117,3.117,0,0,1-1.361,2.463c-.789.449-1.429.082-1.429-.817A3.131,3.131,0,0,1,195.239,227.053Z" transform="translate(-84.652 3.899)" opacity="0.3"/>
        <path id="Path_689" data-name="Path 689" d="M199.37,231.424l10.711-6.206c.544-.313.98-.1.98.49a2.082,2.082,0,0,1-.98,1.633l-10.711,6.22c-.531.313-.98.082-.98-.5A2.137,2.137,0,0,1,199.37,231.424Z" transform="translate(-82.999 3.257)" fill="#e0e0e0"/>
        <path id="Path_690" data-name="Path 690" d="M195.239,231.781c.789-.449,1.361-.1,1.361.817a3.117,3.117,0,0,1-1.361,2.464c-.789.449-1.429.082-1.429-.817A3.131,3.131,0,0,1,195.239,231.781Z" transform="translate(-84.652 5.609)" fill="#27debf"/>
        <path id="Path_691" data-name="Path 691" d="M194.949,302.881a.354.354,0,0,1-.231-.1.34.34,0,0,1,0-.49l5.607-5.771,5.444-.694,5.567-7.186,5.567.762,5.444-4.886,5.526-3.307,5.621-7.8,5.594,1.756,5.376-4.8a.34.34,0,0,1,.476,0,.313.313,0,0,1,0,.476l-5.662,5.063-5.444-1.729-5.444,7.554-5.526,3.307L217.27,290.1l-5.444-.749-5.444,7.091-5.8.68-5.444,5.594a.367.367,0,0,1-.191.163Z" transform="translate(-84.362 19.575)" fill="#27debf"/>
        <path id="Path_692" data-name="Path 692" d="M196.954,281.434a.614.614,0,0,1,.136-.122.806.806,0,0,1,.15-.109,1.51,1.51,0,0,1,.83-.245.966.966,0,0,1,.667.245,1.605,1.605,0,0,1,.436.694,3.361,3.361,0,0,1,.163,1.1,5.048,5.048,0,0,1-.163,1.266,5.81,5.81,0,0,1-.436,1.211,4.41,4.41,0,0,1-.667,1.021,3.1,3.1,0,0,1-.83.708,1.674,1.674,0,0,1-.844.259,1.035,1.035,0,0,1-.653-.259,1.62,1.62,0,0,1-.449-.694,3.714,3.714,0,0,1-.15-1.1,3.97,3.97,0,0,1,0-.694,5.242,5.242,0,0,1,.136-.667,2.083,2.083,0,0,1,.191-.626c.068-.2.136-.408.2-.6l1.47-4.192a1.46,1.46,0,0,0,.1-.2.327.327,0,0,1,.163-.191l.463-.259a.068.068,0,0,1,.109,0v.34Zm-1.048,3.539a2.355,2.355,0,0,0,.1.653,1.048,1.048,0,0,0,.272.449.626.626,0,0,0,.408.177,1.076,1.076,0,0,0,.558-.163,2.6,2.6,0,0,0,.558-.476,3.282,3.282,0,0,0,.408-.653,3.348,3.348,0,0,0,.354-1.524,2.381,2.381,0,0,0-.082-.653,1.048,1.048,0,0,0-.272-.449.626.626,0,0,0-.408-.177,1.17,1.17,0,0,0-.558.163,2.3,2.3,0,0,0-.558.476,3.021,3.021,0,0,0-.408.667,3.51,3.51,0,0,0-.272.748,3.772,3.772,0,0,0-.1.762Z" transform="translate(-84.176 22.348)" fill="#455a64"/>
        <path id="Path_693" data-name="Path 693" d="M199.439,283.832a2.5,2.5,0,0,0,.109.34.476.476,0,0,0,.218.218.572.572,0,0,0,.381,0,1.961,1.961,0,0,0,.626-.259,2.357,2.357,0,0,0,.476-.368,2.476,2.476,0,0,0,.395-.517,2.738,2.738,0,0,0,.368-1.415,1.553,1.553,0,0,0-.1-.626.517.517,0,0,0-.259-.3.641.641,0,0,0-.395,0,1.879,1.879,0,0,0-.49.218l-.667.381a.122.122,0,0,1-.163,0,.272.272,0,0,1,0-.191v-.449a.7.7,0,0,1,0-.231l.082-.218,1.456-3.267-2.327,1.361a.1.1,0,0,1-.15,0,.386.386,0,0,1-.068-.191v-.449A.477.477,0,0,1,199,277.6a.367.367,0,0,1,.15-.191l3.185-1.837h.15a.245.245,0,0,1,0,.2v.381a.84.84,0,0,1,0,.245,1.049,1.049,0,0,1-.109.259l-1.429,3.212a1.578,1.578,0,0,1,.749-.231.775.775,0,0,1,.572.177,1.143,1.143,0,0,1,.368.585,2.846,2.846,0,0,1,.136.966,4.681,4.681,0,0,1-.163,1.239,4.9,4.9,0,0,1-.436,1.1,4.671,4.671,0,0,1-.64.9,3.268,3.268,0,0,1-.776.626,2.314,2.314,0,0,1-.939.354.953.953,0,0,1-.64-.136,1.048,1.048,0,0,1-.381-.49,2.085,2.085,0,0,1-.136-.735.435.435,0,0,1,0-.218.34.34,0,0,1,.122-.15l.367-.218h.15A.313.313,0,0,1,199.439,283.832Z" transform="translate(-82.905 21.489)" fill="#455a64"/>
        <path id="Path_694" data-name="Path 694" d="M202.961,281.8a.993.993,0,0,0,.109.34.421.421,0,0,0,.218.218.571.571,0,0,0,.381,0,1.959,1.959,0,0,0,.626-.259,2.352,2.352,0,0,0,.476-.367,2.247,2.247,0,0,0,.395-.531,3.022,3.022,0,0,0,.272-.64,2.721,2.721,0,0,0,.1-.762,1.552,1.552,0,0,0-.1-.626.572.572,0,0,0-.259-.3.64.64,0,0,0-.395,0,2.363,2.363,0,0,0-.49.2l-.681.395a.122.122,0,0,1-.15,0,.272.272,0,0,1,0-.191v-.449a.449.449,0,0,1,0-.231,1.885,1.885,0,0,1,.082-.218L205,275.119l-2.327,1.361a.123.123,0,0,1-.163,0,.272.272,0,0,1,0-.191v-.449a.613.613,0,0,1,0-.272.327.327,0,0,1,.163-.191l3.185-1.851a.122.122,0,0,1,.15,0,.286.286,0,0,1,.068.2v.449a.912.912,0,0,1,0,.245c0,.082-.068.163-.109.259L204.54,277.9a1.8,1.8,0,0,1,.735-.245.871.871,0,0,1,.585.19,1.36,1.36,0,0,1,.368.572,3.269,3.269,0,0,1,.136.98,4.765,4.765,0,0,1-.163,1.239,5.2,5.2,0,0,1-.436,1.089,3.961,3.961,0,0,1-.64.9,3.335,3.335,0,0,1-.776.64,2.381,2.381,0,0,1-.939.354,1.1,1.1,0,0,1-.653-.136,1.252,1.252,0,0,1-.381-.49,2.082,2.082,0,0,1-.123-.735.436.436,0,0,1,0-.218.313.313,0,0,1,.122-.163l.367-.2a.109.109,0,0,1,.15,0A.314.314,0,0,1,202.961,281.8Z" transform="translate(-81.609 20.742)" fill="#455a64"/>
        <path id="Path_695" data-name="Path 695" d="M195.85,304.844l47.786-27.7c.531-.313.98-.082.98.5a2.137,2.137,0,0,1-.98,1.633L195.85,306.94c-.531.313-.98.1-.98-.5A2.123,2.123,0,0,1,195.85,304.844Z" transform="translate(-84.27 22.008)" fill="#e0e0e0"/>
        <path id="Path_696" data-name="Path 696" d="M195.85,275.684l10.711-6.206c.544-.313.98-.1.98.49a2.11,2.11,0,0,1-.98,1.633l-10.711,6.206c-.531.313-.98.1-.98-.49A2.137,2.137,0,0,1,195.85,275.684Z" transform="translate(-84.27 19.238)" fill="#e0e0e0"/>
        <path id="Path_697" data-name="Path 697" d="M194.949,332.238a.313.313,0,0,1-.231-.109.327.327,0,0,1,0-.476l5.608-5.771,5.553-.694,5.58-4.886,5.444-1.47,5.621-11.174,5.621,2.722,5.444-4.791h.1l5.376-1.021,5.444-9.4a.34.34,0,1,1,.585.34L239.5,305.18l-5.594,1.062-5.635,4.954-5.444-2.722-5.444,10.888-5.594,1.524-5.553,4.886-5.512.708-5.444,5.594A.367.367,0,0,1,194.949,332.238Z" transform="translate(-84.362 28.49)" fill="#27debf"/>
        <g id="Group_133" data-name="Group 133" transform="translate(110.252 323.453)" opacity="0.3">
          <path id="Path_698" data-name="Path 698" d="M194.949,332.238a.313.313,0,0,1-.231-.109.327.327,0,0,1,0-.476l5.608-5.771,5.553-.694,5.58-4.886,5.444-1.47,5.621-11.174,5.621,2.722,5.444-4.791h.1l5.376-1.021,5.444-9.4a.34.34,0,1,1,.585.34L239.5,305.18l-5.594,1.062-5.635,4.954-5.444-2.722-5.444,10.888-5.594,1.524-5.553,4.886-5.512.708-5.444,5.594A.367.367,0,0,1,194.949,332.238Z" transform="translate(-194.614 -294.963)"/>
        </g>
        <path id="Path_699" data-name="Path 699" d="M197.6,314.551a.707.707,0,0,1,0,.286.353.353,0,0,1-.163.177l-.327.191a.109.109,0,0,1-.15,0,.286.286,0,0,1,0-.2v-6.805l-1.361,2.287q-.082.15-.163.163a.109.109,0,0,1-.15,0l-.191-.272a.272.272,0,0,1,0-.218.491.491,0,0,1,.082-.272l1.729-3.049a.544.544,0,0,1,.136-.163l.122-.082.327-.191a.122.122,0,0,1,.163,0,.245.245,0,0,1,0,.191Z" transform="translate(-84.196 32.608)" fill="#455a64"/>
        <path id="Path_700" data-name="Path 700" d="M200.183,308.872a5.12,5.12,0,0,0,.367-.885,3.578,3.578,0,0,0,.123-.98,1.443,1.443,0,0,0-.259-.966c-.163-.191-.422-.191-.789,0a1.551,1.551,0,0,0-.476.408,2.724,2.724,0,0,0-.34.531,4.8,4.8,0,0,0-.2.626,5.445,5.445,0,0,0-.122.653.817.817,0,0,1-.082.259.49.49,0,0,1-.136.15l-.367.2h-.122a.218.218,0,0,1,0-.163,4.791,4.791,0,0,1,.136-1.021,5.582,5.582,0,0,1,.368-1.075,6.1,6.1,0,0,1,.6-.98,2.817,2.817,0,0,1,.8-.708,1.538,1.538,0,0,1,.789-.245.844.844,0,0,1,.558.245,1.429,1.429,0,0,1,.354.653,4.08,4.08,0,0,1,.109.966,6.361,6.361,0,0,1,0,.749,6.171,6.171,0,0,1-.122.694c-.068.231-.15.463-.245.708s-.218.49-.354.762l-1.81,3.634,2.477-1.429a.109.109,0,0,1,.15,0v.64a.476.476,0,0,1,0,.272.313.313,0,0,1-.15.19l-3.484,2.014a.123.123,0,0,1-.15,0,.272.272,0,0,1-.068-.191v-.449a.787.787,0,0,1,0-.259,2.445,2.445,0,0,1,.136-.327Z" transform="translate(-83.24 31.999)" fill="#455a64"/>
        <path id="Path_701" data-name="Path 701" d="M205.324,305.133v2.1a8.167,8.167,0,0,1-.122,1.429,7.319,7.319,0,0,1-.381,1.361,4.329,4.329,0,0,1-.64,1.089,3.158,3.158,0,0,1-.912.789,1.606,1.606,0,0,1-.926.272.926.926,0,0,1-.626-.354,2.055,2.055,0,0,1-.381-.871,6.953,6.953,0,0,1-.136-1.279v-2.15a10.147,10.147,0,0,1,.136-1.443,5.812,5.812,0,0,1,.381-1.361,5.036,5.036,0,0,1,.626-1.089,3.254,3.254,0,0,1,.926-.8,1.539,1.539,0,0,1,.912-.259.9.9,0,0,1,.64.368,2.259,2.259,0,0,1,.381.871A5.92,5.92,0,0,1,205.324,305.133Zm-3.362,4.083a2.559,2.559,0,0,0,.34,1.538c.218.259.544.259.966,0a2.273,2.273,0,0,0,.953-1.116,5.13,5.13,0,0,0,.354-1.946v-2.1a2.572,2.572,0,0,0-.354-1.552c-.218-.259-.531-.259-.953,0a2.3,2.3,0,0,0-.966,1.116,5.2,5.2,0,0,0-.34,1.946Z" transform="translate(-81.984 31.233)" fill="#455a64"/>
        <path id="Path_702" data-name="Path 702" d="M195.85,332.952l47.786-27.684c.531-.313.98-.1.98.5a2.123,2.123,0,0,1-.98,1.62l-47.786,27.7c-.531.313-.98.082-.98-.5A2.137,2.137,0,0,1,195.85,332.952Z" transform="translate(-84.27 32.16)" fill="#e0e0e0"/>
        <path id="Path_703" data-name="Path 703" d="M195.85,303.8l10.711-6.22c.544-.313.98-.082.98.5a2.109,2.109,0,0,1-.98,1.633L195.85,305.92c-.531.313-.98.1-.98-.49a2.123,2.123,0,0,1,.98-1.633Z" transform="translate(-84.27 29.384)" fill="#e0e0e0"/>
        <path id="Path_704" data-name="Path 704" d="M243.7,274.653a.354.354,0,0,1-.259-.136.327.327,0,0,1,0-.476l5.526-4.41,5.567-6.356,5.648-.83,5.444-1.211,5.594-6.587,5.444.966,5.444-8.724,5.608.082,5.444-4.832a.342.342,0,0,1,.49.476l-5.621,5.022-5.444-.1-5.539,8.792-5.567-.98-5.444,6.465-5.648,1.279-5.444.789-5.444,6.206-5.58,4.56A.34.34,0,0,1,243.7,274.653Z" transform="translate(-66.772 9.38)" fill="#27debf"/>
        <path id="Path_705" data-name="Path 705" d="M245.693,253.242l.136-.122.15-.109a1.551,1.551,0,0,1,.789-.191.98.98,0,0,1,.667.245,1.742,1.742,0,0,1,.435.694,3.784,3.784,0,0,1,.15,1.1,5.74,5.74,0,0,1-.15,1.266,6.713,6.713,0,0,1-.435,1.211,4.9,4.9,0,0,1-.667,1.021,3.158,3.158,0,0,1-.844.708,1.632,1.632,0,0,1-.83.259,1.076,1.076,0,0,1-.667-.259,1.607,1.607,0,0,1-.381-.8,3.308,3.308,0,0,1-.163-1.1,5.972,5.972,0,0,1,0-.694,2.763,2.763,0,0,1,.136-.667l.191-.64c.068-.2.15-.395.218-.585l1.47-4.192.082-.2a.449.449,0,0,1,.163-.191l.463-.259h.122a.231.231,0,0,1,0,.163.259.259,0,0,1,0,.109.109.109,0,0,1,0,.068Zm-1.034,3.539a1.946,1.946,0,0,0,.1.653,1.035,1.035,0,0,0,.259.449.626.626,0,0,0,.422.177,1.035,1.035,0,0,0,.544-.163,2.3,2.3,0,0,0,.558-.476,3.692,3.692,0,0,0,.422-.667,4.08,4.08,0,0,0,.259-.749,3.65,3.65,0,0,0,.1-.762,2.355,2.355,0,0,0-.1-.653,1.185,1.185,0,0,0-.259-.449.694.694,0,0,0-.422-.177,1.225,1.225,0,0,0-.558.163,2.246,2.246,0,0,0-.544.476,2.624,2.624,0,0,0-.422.667,3.474,3.474,0,0,0-.259.749,3,3,0,0,0-.1.762Z" transform="translate(-66.577 12.159)" fill="#455a64"/>
        <path id="Path_706" data-name="Path 706" d="M249.977,251.948a5.219,5.219,0,0,0,.367-.9,4.194,4.194,0,0,0,.123-.98,1.47,1.47,0,0,0-.259-.953c-.163-.2-.436-.191-.789,0a2.014,2.014,0,0,0-.49.395,3.03,3.03,0,0,0-.327.544,2.942,2.942,0,0,0-.2.612,3.719,3.719,0,0,1-.136.653.64.64,0,0,1-.082.259.354.354,0,0,1-.122.15l-.368.218a.109.109,0,0,1-.136,0,.231.231,0,0,1,0-.163,3.961,3.961,0,0,1,.136-1.007,5.277,5.277,0,0,1,.367-1.075,4.5,4.5,0,0,1,.6-.98,2.872,2.872,0,0,1,.8-.721,1.5,1.5,0,0,1,.776-.231.789.789,0,0,1,.572.245,1.362,1.362,0,0,1,.34.64,3.581,3.581,0,0,1,.122.98,6.308,6.308,0,0,1,0,.735,4.168,4.168,0,0,1-.136.694,5.364,5.364,0,0,1-.231.708c-.109.245-.218.49-.354.762l-1.81,3.634,2.477-1.429a.123.123,0,0,1,.15,0,.286.286,0,0,1,.068.2v.449a.722.722,0,0,1-.068.272.544.544,0,0,1-.15.191l-3.484,2h-.163a.286.286,0,0,1,0-.2V257.2a.788.788,0,0,1,0-.259,1.81,1.81,0,0,1,.136-.313Z" transform="translate(-65.253 11.452)" fill="#455a64"/>
        <path id="Path_707" data-name="Path 707" d="M254.291,245.478a.109.109,0,0,1,.15,0,.231.231,0,0,1,.068.2v.517a1.683,1.683,0,0,1,0,.245,2.816,2.816,0,0,1,0,.3l-1.8,8.166a1.983,1.983,0,0,1-.1.259.326.326,0,0,1-.15.177l-.367.218a.109.109,0,0,1-.136,0,.232.232,0,0,1,0-.177h0a.421.421,0,0,1,0-.109l1.8-8.166-2.722,1.538a.123.123,0,0,1-.15,0,.285.285,0,0,1-.068-.2V248a.72.72,0,0,1,.068-.272.45.45,0,0,1,.15-.191Z" transform="translate(-64.069 10.613)" fill="#455a64"/>
        <path id="Path_708" data-name="Path 708" d="M244.6,276.645l47.773-27.7c.544-.313.98-.082.98.5a2.11,2.11,0,0,1-.98,1.633L244.6,278.768c-.544.313-.98.082-.98-.5a2.082,2.082,0,0,1,.98-1.62Z" transform="translate(-66.668 11.826)" fill="#e0e0e0"/>
        <path id="Path_709" data-name="Path 709" d="M244.6,247.474l10.7-6.206c.544-.313.994-.1.994.49a2.123,2.123,0,0,1-.994,1.633L244.6,249.6c-.544.313-.98.1-.98-.49A2.11,2.11,0,0,1,244.6,247.474Z" transform="translate(-66.668 9.052)" fill="#e0e0e0"/>
        <path id="Path_710" data-name="Path 710" d="M243.688,302.771a.422.422,0,0,1-.177,0,.367.367,0,0,1-.109-.476l5.648-9.255,5.689,1.048,5.349-1.47,5.526-6.737,5.444-1.361,5.58-9.963,5.716,1.66,5.363-1.021,5.444-4.845a.34.34,0,1,1,.449.5l-5.594,4.982h-.082L282.3,276.9l-5.267-1.538-5.444,9.745-5.567,1.361L260.5,293.2h-.1l-5.608,1.538h-.082l-5.294-.98-5.444,8.86A.34.34,0,0,1,243.688,302.771Z" transform="translate(-66.763 19.562)" fill="#27debf"/>
        <g id="Group_134" data-name="Group 134" transform="translate(176.593 289.795)" opacity="0.3">
          <path id="Path_711" data-name="Path 711" d="M243.688,302.771a.422.422,0,0,1-.177,0,.367.367,0,0,1-.109-.476l5.648-9.255,5.689,1.048,5.349-1.47,5.526-6.737,5.444-1.361,5.58-9.963,5.716,1.66,5.363-1.021,5.444-4.845a.34.34,0,1,1,.449.5l-5.594,4.982h-.082L282.3,276.9l-5.267-1.538-5.444,9.745-5.567,1.361L260.5,293.2h-.1l-5.608,1.538h-.082l-5.294-.98-5.444,8.86A.34.34,0,0,1,243.688,302.771Z" transform="translate(-243.357 -270.233)"/>
        </g>
        <path id="Path_712" data-name="Path 712" d="M246.062,283.946l-.109.082h-.109a1.674,1.674,0,0,1-.749.245,1.007,1.007,0,0,1-.653-.2,1.362,1.362,0,0,1-.395-.6,3.091,3.091,0,0,1-.177-1.157,5.049,5.049,0,0,1,.163-1.266,6.435,6.435,0,0,1,.436-1.184,5.117,5.117,0,0,1,.653-.98,2.969,2.969,0,0,1,.776-.681,1.784,1.784,0,0,1,.844-.272.967.967,0,0,1,.64.259,1.565,1.565,0,0,1,.408.694,3.663,3.663,0,0,1,.136,1.089,3.989,3.989,0,0,1,0,.667,3.527,3.527,0,0,1-.163.708,5.876,5.876,0,0,1-.218.694c-.082.231-.136.436-.2.613l-1.47,4.192-.1.2a.326.326,0,0,1-.163.191l-.463.272a.082.082,0,0,1-.109,0,.3.3,0,0,1,0-.177v-.1a.532.532,0,0,0,0-.082Zm1.048-3.525a1.975,1.975,0,0,0-.1-.667.857.857,0,0,0-.245-.367.531.531,0,0,0-.395-.15,1.156,1.156,0,0,0-.517.15,2.2,2.2,0,0,0-.517.436,2.722,2.722,0,0,0-.395.612,3.24,3.24,0,0,0-.34,1.5,2.453,2.453,0,0,0,.082.681.967.967,0,0,0,.259.422.6.6,0,0,0,.395.15.9.9,0,0,0,.517-.15,2.2,2.2,0,0,0,.517-.436,3.612,3.612,0,0,0,.395-.612,3.25,3.25,0,0,0,.259-.721A3.065,3.065,0,0,0,247.11,280.421Z" transform="translate(-66.579 22.341)" fill="#455a64"/>
        <path id="Path_713" data-name="Path 713" d="M247.973,283.859a1.444,1.444,0,0,0,.122.34.5.5,0,0,0,.218.231.666.666,0,0,0,.381,0,1.96,1.96,0,0,0,.626-.259,2.354,2.354,0,0,0,.476-.367,3.049,3.049,0,0,0,.395-.517,3.475,3.475,0,0,0,.272-.653,2.723,2.723,0,0,0,.1-.762,1.551,1.551,0,0,0-.1-.626.571.571,0,0,0-.259-.3.761.761,0,0,0-.395,0,1.88,1.88,0,0,0-.49.218l-.681.381a.109.109,0,0,1-.15,0,.245.245,0,0,1,0-.191v-.449a.693.693,0,0,1,0-.231l.1-.218,1.456-3.266-2.341,1.361a.109.109,0,0,1-.15,0,.313.313,0,0,1-.068-.2V277.9a.665.665,0,0,1,.068-.272.45.45,0,0,1,.15-.191l3.2-1.837a.109.109,0,0,1,.15,0,.272.272,0,0,1,.068.191v.449a.774.774,0,0,1,0,.245,2.1,2.1,0,0,1-.109.259l-1.429,3.212a1.578,1.578,0,0,1,.735-.231.8.8,0,0,1,.572.177,1.252,1.252,0,0,1,.381.585,3.24,3.24,0,0,1,.136.966,4.617,4.617,0,0,1-.163,1.239,5.636,5.636,0,0,1-.436,1.1,4.669,4.669,0,0,1-.64.9,3.266,3.266,0,0,1-.776.626,2.382,2.382,0,0,1-.939.354,1.02,1.02,0,0,1-.653-.136,1.251,1.251,0,0,1-.381-.49,2.053,2.053,0,0,1-.122-.721.7.7,0,0,1,0-.231.367.367,0,0,1,.136-.15l.368-.218h.136a.163.163,0,0,1,.041.136Z" transform="translate(-65.346 21.488)" fill="#455a64"/>
        <path id="Path_714" data-name="Path 714" d="M244.6,304.762l47.773-27.725c.544-.313.98-.1.98.5a2.083,2.083,0,0,1-.98,1.62l-47.773,27.7c-.544.313-.98.082-.98-.5a2.11,2.11,0,0,1,.98-1.593Z" transform="translate(-66.668 21.967)" fill="#e0e0e0"/>
        <path id="Path_715" data-name="Path 715" d="M244.6,275.6l10.7-6.22c.544-.313.994-.082.994.5a2.123,2.123,0,0,1-.994,1.633l-10.7,6.206c-.544.313-.98.1-.98-.49a2.082,2.082,0,0,1,.98-1.633Z" transform="translate(-66.668 19.202)" fill="#e0e0e0"/>
        <path id="Path_716" data-name="Path 716" d="M296.424,220.678a6.234,6.234,0,0,1,6.247-.517l-6.3,16.986Z" transform="translate(-47.623 1.265)" fill="#27debf"/>
        <path id="Path_717" data-name="Path 717" d="M291.78,227.185a18.728,18.728,0,0,1,6.3-6.805V236.9Z" transform="translate(-49.28 1.562)" fill="#27debf"/>
        <path id="Path_718" data-name="Path 718" d="M288.91,235.887a33.2,33.2,0,0,1,3.906-10.507l6.3,9.718Z" transform="translate(-50.316 3.368)" fill="#27debf"/>
        <path id="Path_719" data-name="Path 719" d="M292.816,227.185a33.2,33.2,0,0,0-3.906,10.507l10.208-.789V220.38A18.727,18.727,0,0,0,292.816,227.185Z" transform="translate(-50.316 1.562)" opacity="0.3"/>
        <path id="Path_720" data-name="Path 720" d="M302.672,220a8.82,8.82,0,0,1,3.906,5.989l-10.208,11Z" transform="translate(-47.623 1.425)" fill="#27debf"/>
        <path id="Path_721" data-name="Path 721" d="M289.051,243.528a20.592,20.592,0,0,1-.531-4.8,29.2,29.2,0,0,1,.531-5.444l10.208-.789Z" transform="translate(-50.457 5.935)" fill="#27debf"/>
        <path id="Path_722" data-name="Path 722" d="M306.618,231.94a33.2,33.2,0,0,1-3.906,10.507l-6.3-9.718Z" transform="translate(-47.609 5.736)" fill="#27debf"/>
        <path id="Path_723" data-name="Path 723" d="M298.082,249.043a6.233,6.233,0,0,1-6.3.463l6.3-16.986Z" transform="translate(-49.28 5.945)" fill="#27debf"/>
        <path id="Path_724" data-name="Path 724" d="M288.91,243.517l10.208-11-6.3,16.986a8.82,8.82,0,0,1-3.906-5.989Z" transform="translate(-50.316 5.945)" fill="#27debf"/>
        <path id="Path_725" data-name="Path 725" d="M306.618,224.44a20.637,20.637,0,0,1,.517,4.8,29.163,29.163,0,0,1-.517,5.444l-10.208.789Z" transform="translate(-47.609 3.028)" fill="#27debf"/>
        <path id="Path_726" data-name="Path 726" d="M302.672,242.238a18.729,18.729,0,0,1-6.3,6.805V232.52Z" transform="translate(-47.623 5.945)" fill="#27debf"/>
        <path id="Path_727" data-name="Path 727" d="M292.74,252.534l10.7-6.206c.544-.313.98-.1.98.49a2.11,2.11,0,0,1-.98,1.633l-10.7,6.206c-.544.313-.98.1-.98-.49a2.109,2.109,0,0,1,.98-1.633Z" transform="translate(-49.287 10.879)" fill="#455a64"/>
        <path id="Path_728" data-name="Path 728" d="M291,258.966l15.434-8.928c.544-.313.98-.1.98.5a2.082,2.082,0,0,1-.98,1.62L291,261.117c-.544.313-.98.1-.98-.49A2.082,2.082,0,0,1,291,258.966Z" transform="translate(-49.916 12.219)" fill="#e0e0e0"/>
        <path id="Path_729" data-name="Path 729" d="M291,263.673l15.434-8.956c.544-.313.98-.082.98.5a2.082,2.082,0,0,1-.98,1.62L291,265.8c-.544.313-.98.1-.98-.49A2.082,2.082,0,0,1,291,263.673Z" transform="translate(-49.916 13.909)" fill="#e0e0e0"/>
        <path id="Path_730" data-name="Path 730" d="M291,268.413l15.434-8.956c.544-.313.98-.082.98.5a2.109,2.109,0,0,1-.98,1.633L291,270.536c-.544.313-.98.1-.98-.49a2.11,2.11,0,0,1,.98-1.633Z" transform="translate(-49.916 15.621)" fill="#e0e0e0"/>
        <path id="Path_731" data-name="Path 731" d="M324.84,204.193a6.234,6.234,0,0,1,6.3-.463l-6.3,16.931Z" transform="translate(-37.344 -4.681)" fill="#27debf"/>
        <path id="Path_732" data-name="Path 732" d="M320.21,210.705a18.85,18.85,0,0,1,6.3-6.805v16.469Z" transform="translate(-39.016 -4.388)" fill="#27debf"/>
        <path id="Path_733" data-name="Path 733" d="M317.35,219.407a33.183,33.183,0,0,1,3.893-10.507l6.3,9.718Z" transform="translate(-40.048 -2.582)" fill="#27debf"/>
        <path id="Path_734" data-name="Path 734" d="M331.142,203.56a8.82,8.82,0,0,1,3.906,5.989l-10.208,11Z" transform="translate(-37.344 -4.51)" fill="#27debf"/>
        <path id="Path_735" data-name="Path 735" d="M317.491,227.048a20.591,20.591,0,0,1-.531-4.8,29.3,29.3,0,0,1,.531-5.444l10.194-.789Z" transform="translate(-40.189 -0.015)" fill="#27debf"/>
        <path id="Path_736" data-name="Path 736" d="M335.048,215.46a33.075,33.075,0,0,1-3.906,10.507l-6.3-9.772Z" transform="translate(-37.344 -0.214)" fill="#27debf"/>
        <path id="Path_737" data-name="Path 737" d="M326.512,232.578a6.261,6.261,0,0,1-6.3.476l6.3-17.054Z" transform="translate(-39.016 -0.019)" fill="#27debf"/>
        <path id="Path_738" data-name="Path 738" d="M317.35,227.037l10.194-11-6.3,17A8.874,8.874,0,0,1,317.35,227.037Z" transform="translate(-40.048 -0.005)" fill="#27debf"/>
        <path id="Path_739" data-name="Path 739" d="M321.384,210.705a33.183,33.183,0,0,0-3.893,10.507,29.3,29.3,0,0,0-.531,5.444,20.6,20.6,0,0,0,.531,4.8,8.874,8.874,0,0,0,3.893,6l6.3-17.095V203.9A18.85,18.85,0,0,0,321.384,210.705Z" transform="translate(-40.189 -4.388)" opacity="0.3"/>
        <path id="Path_740" data-name="Path 740" d="M335.048,208a20.585,20.585,0,0,1,.531,4.8,29.184,29.184,0,0,1-.531,5.444l-10.208.789Z" transform="translate(-37.344 -2.907)" fill="#27debf"/>
        <path id="Path_741" data-name="Path 741" d="M331.142,225.772a18.62,18.62,0,0,1-6.3,6.805V216Z" transform="translate(-37.344 -0.019)" fill="#27debf"/>
        <path id="Path_742" data-name="Path 742" d="M321.17,236.114l10.711-6.206c.544-.313.98-.1.98.49a2.083,2.083,0,0,1-.98,1.633l-10.711,6.22c-.544.313-.98.082-.98-.5A2.11,2.11,0,0,1,321.17,236.114Z" transform="translate(-39.023 4.951)" fill="#455a64"/>
        <path id="Path_743" data-name="Path 743" d="M319.444,242.553l15.421-8.956c.544-.313.98-.082.98.5a2.11,2.11,0,0,1-.98,1.633l-15.421,8.942c-.544.313-.994.1-.994-.49A2.123,2.123,0,0,1,319.444,242.553Z" transform="translate(-39.651 6.284)" fill="#e0e0e0"/>
        <path id="Path_744" data-name="Path 744" d="M319.444,247.25l15.421-8.942c.544-.313.98-.1.98.49a2.11,2.11,0,0,1-.98,1.633l-15.421,8.942c-.544.327-.994.1-.994-.49A2.123,2.123,0,0,1,319.444,247.25Z" transform="translate(-39.651 7.984)" fill="#e0e0e0"/>
        <path id="Path_745" data-name="Path 745" d="M319.444,251.939l15.421-8.9c.544-.313.98-.1.98.49a2.109,2.109,0,0,1-.98,1.633l-15.421,8.956c-.544.313-.994.082-.994-.5a2.123,2.123,0,0,1,.994-1.674Z" transform="translate(-39.651 9.691)" fill="#e0e0e0"/>
      </g>
      <rect id="Rectangle_30" data-name="Rectangle 30" width="47.453" height="15.08" transform="matrix(0.914, -0.406, 0.406, 0.914, 142.543, 260.634)" fill="none"/>
    </g>
    <g id="Group_135" data-name="Group 135" transform="translate(884.394 299.053)">
      <path id="Path_510" data-name="Path 510" d="M317.93,116s32.32,31.827,33.8,43.9-14.651,30.784-14.651,30.784Z" transform="translate(-248.974 -52.807)" fill="#7f5da0"/>
      <path id="Path_511" data-name="Path 511" d="M340.1,239.786s-1.07,16.928-4.335,17.175H298.53a6.7,6.7,0,0,1,6.173-6.009c6.036-1.043,16.105-5.3,19.782-13.279S340.1,239.786,340.1,239.786Z" transform="translate(-282.801 153.992)" fill="#003261"/>
      <path id="Path_512" data-name="Path 512" d="M356.847,239.786s-1.07,16.928-4.335,17.175H315.28a6.694,6.694,0,0,1,6.173-6.009c6.036-1.043,16.133-5.3,19.782-13.279S356.847,239.786,356.847,239.786Z" transform="translate(-253.595 153.992)" fill="#003261"/>
      <path id="Path_513" data-name="Path 513" d="M305.35,186.673s5.487,34.515,25.516,95.782,22.882,87.8,22.882,87.8l21.593-.6s.192-66.973-9.081-97.784-2-111.064-2-111.064Z" transform="translate(-270.909 25.309)" fill="#003261"/>
      <path id="Path_514" data-name="Path 514" d="M301.52,161.49a837.09,837.09,0,0,0,8.231,115.865c9,63.873,5.954,90.98,5.954,90.98l21.538.713s12.9-63.873,9.191-95.836,17.642-109.747,17.642-109.747Z" transform="translate(-277.588 26.513)" fill="#00448c"/>
      <path id="Path_515" data-name="Path 515" d="M332.518,133.486,322.366,141l-14.706-3.1c.219-1.344,1.18-6.887,2.058-11.907l.165-.905c.768-4.253,1.4-7.929,1.4-7.929L325,110.3l5.1-2.552s-.384,4.747-.439,5.487a44.256,44.256,0,0,0,2.853,20.248Z" transform="translate(-266.881 -67.192)" fill="#ffb27b"/>
      <path id="Path_516" data-name="Path 516" d="M312.22,119.106c.329,0,19.974-5.926,22.114-5.24s3.4,4.856,3.4,4.856l-32.156,7.271a15.913,15.913,0,0,1,6.64-6.887Z" transform="translate(-270.508 -56.626)" fill="#7f5da0"/>
      <path id="Path_517" data-name="Path 517" d="M374.726,248.038c-3.347,15.2-58.824,17.011-73.119,3.21-1.619-1.591-1.7-8.889-1.1-18.767,1.207-19.206,5.076-48.289,5.213-63.1a119.974,119.974,0,0,1,2.36-21.126,172.045,172.045,0,0,1,7.051-25.269s27.08-8.78,32.156-7.271C371.708,122.872,378.046,232.838,374.726,248.038Z" transform="translate(-279.952 -53.615)" fill="#7c1dc9"/>
      <path id="Path_518" data-name="Path 518" d="M300.29,213.434c1.207-19.206,5.076-48.289,5.213-63.1a119.977,119.977,0,0,1,2.36-21.126l16.3-2.744S340.1,191.43,300.29,213.434Z" transform="translate(-279.732 -34.568)" fill="#7f5da0"/>
      <path id="Path_519" data-name="Path 519" d="M306.4,149.961a3.841,3.841,0,0,1-1.207,4.445,7.408,7.408,0,0,0-3.32,6.777c.521,2.113,5.652,5.487,7.435,5.021s5.487-3.347,4.994-4.472,2.414-9.767-1.921-13.087a3.484,3.484,0,0,0-5.981,1.317Z" transform="translate(-277.009 2.017)" fill="#ffb27b"/>
      <path id="Path_520" data-name="Path 520" d="M340.38,117s-15.858,2.442-28.534,21.1-20.989,32.54-18.657,39.262,23.6,30.18,27.272,30.18a9.8,9.8,0,0,0,9.9-8.67s-14.953-22.443-12.017-25.79c1.262-1.454,19.453-16.215,21.949-9.548C344.688,174.617,340.38,117,340.38,117Z" transform="translate(-292.797 -51.063)" fill="#7c1dc9"/>
      <path id="Path_521" data-name="Path 521" d="M327.341,111.781c-3.018,5.762-14.24,10.755-18.931,12.593l.165-.905c.768-4.253,1.4-7.929,1.4-7.929l13.718-6.859C326.738,108.653,328.576,109.394,327.341,111.781Z" transform="translate(-265.574 -65.571)" fill="#ffa668"/>
      <path id="Path_522" data-name="Path 522" d="M308.51,136.772s24.693,7.737,29.33-7.765,10.975-24.912-4.747-30.51-20.468-.576-23.239,4.225S302.2,134.358,308.51,136.772Z" transform="translate(-270.777 -87.627)" fill="#ffb27b"/>
      <path id="Path_523" data-name="Path 523" d="M309.911,107.159s1.427,18.6,5.158,17.752,7.134-1.482,6.53,4.143-5.817,12.127,5.679,13.032,28.315-29.824,25.269-35.585C343.494,89.846,296.879,86.883,309.911,107.159Z" transform="translate(-266.937 -92.968)" fill="#003261"/>
      <path id="Path_524" data-name="Path 524" d="M394.083,160.09s-9.493,2.442-15.529.631-16.462,1.152-18.108,3.347-1.07,3.073,1.921,3.841,13.581,5.268,20.523,2.744a55.724,55.724,0,0,1,16.023-2.744Z" transform="translate(-176.42 24.072)" fill="#fa9960"/>
      <path id="Path_525" data-name="Path 525" d="M458.664,136.765s-10.673,75.808-28.342,82.584c-8.7,3.347-47.219,10.975-58.632,11.715,0,0-2.744-2.277-2.085-11.469,0,0,40.332-14.816,46.066-22.882,8.533-11.99-5.3-49,5.487-60.361S449.94,120.44,458.664,136.765Z" transform="translate(-159.048 -35.16)" fill="#2776ce"/>
      <path id="Path_526" data-name="Path 526" d="M435.21,313.306V296.625h25.955a1.29,1.29,0,0,0,1.262-1.29v-2.744a1.29,1.29,0,0,0-1.262-1.289H435.128V197.331a4.829,4.829,0,0,0-4.8-4.8h-5.158a4.829,4.829,0,0,0-4.8,4.8v94.08h-26.01a1.29,1.29,0,0,0-1.289,1.29v2.744a1.29,1.29,0,0,0,1.289,1.289h26.01v16.682c-18.822,1.4-33.912,8.231-38.137,16.956h91.035C469.122,321.51,454.032,314.706,435.21,313.306Z" transform="translate(-136.856 80.636)" fill="#0d458d"/>
      <path id="Path_527" data-name="Path 527" d="M468.925,216.46a134.849,134.849,0,0,1-10.426,14.9c-11.469,14.487-23.952,26.421-26.12,37.7a54.629,54.629,0,0,1-2,7.216c-.933,2.579-2.03,5.3-3.347,8.231a249.666,249.666,0,0,1-19.4,33.171c-12.566,18.6-24.364,34.131-24.364,34.131l-21.647-.933c.85-2.167,10.316-27.848,22.937-59.263l15.858-39.372,2.085-5.213c1.619-3.978,3.21-7.929,4.747-11.77L428.566,182.3s47.411-17.971,52.322-6.31C484.948,185.456,481.656,194.867,468.925,216.46Z" transform="translate(-172.793 44.936)" fill="#003261"/>
      <path id="Path_528" data-name="Path 528" d="M397.263,239.749s-1.043,17.971-4.5,18.218H353.2a7.463,7.463,0,0,1,6.694-6.53c6.365-1.125,17.038-5.487,20.907-14.02C384.835,228.527,397.263,239.749,397.263,239.749Z" transform="translate(-187.475 152.931)" fill="#003261"/>
      <path id="Path_529" data-name="Path 529" d="M394.7,217.49s15.063,9.685,13.718,12.813c-.192.411-8.533,15.337-8.533,15.337L389.157,264.6a7.051,7.051,0,0,1-2.387-8.78c2.14-6.118,3.43-17.614-2.03-25.077C378.868,222.868,394.7,217.49,394.7,217.49Z" transform="translate(-134.757 124.158)" fill="#003261"/>
      <path id="Path_530" data-name="Path 530" d="M422.767,172.57s-59.894,37.286-66.534,62.2,79.155,78.057,79.155,78.057,9.411-8.231,10.975-14.4c0,0-38.8-46.478-47.191-56.876-5.186-6.42,76.384-22.169,86.371-37.671s6.393-28.534,6.393-28.534Z" transform="translate(-182.825 45.833)" fill="#00448c"/>
      <rect id="Rectangle_29" data-name="Rectangle 29" width="130.653" height="33.226" rx="1.61" transform="translate(225.647 266.197)" fill="#7c1dc9"/>
      <path id="Path_531" data-name="Path 531" d="M424.73,139.666s-23.623,13.225-37.89,9.521a33.527,33.527,0,0,1,9.054-8.231c-.3-1.4-.576-2.744-.823-3.923a94.614,94.614,0,0,1-1.591-10.975l10.975-9.768,7.326,1.564c.137.713.274,1.427.466,2.113a35.038,35.038,0,0,0,12.483,19.7Z" transform="translate(-128.818 -52.301)" fill="#fa9960"/>
      <path id="Path_532" data-name="Path 532" d="M452.658,197.008c-2.03,27.437.659,69.223-1.674,76.466-2,6.256-24.693,2.524-33.857.439-3.375-.768-7.463-1.866-11.661-3.155-11.743-3.649-24.556-8.835-25.928-12.7a2.584,2.584,0,0,1,0-.439h0a1.178,1.178,0,0,1,0-.3,3.57,3.57,0,0,1,0-1.317,27.435,27.435,0,0,0,2.414-8.944c.247-5.487.192-11.825.411-18.712a23.22,23.22,0,0,1,0-2.387v-.741c.192-7.655.6-15.721,1.07-23.733.3-5.021.631-9.987,1.015-14.761a197.841,197.841,0,0,1,4.253-30.18A48.479,48.479,0,0,1,404.259,132.5l4.362-3.622a25.022,25.022,0,0,0,15.721-2.113c5.487-2.744,7.545-4.554,8.505-3.841C445.771,132.861,454.99,163.426,452.658,197.008Z" transform="translate(-141.655 -40.997)" fill="#5e9af2"/>
      <path id="Path_533" data-name="Path 533" d="M405.517,218.436c-11.743-3.649-24.556-8.835-25.928-12.7a2.584,2.584,0,0,1,0-.439h0a1.173,1.173,0,0,0,0-.3,3.571,3.571,0,0,1,0-1.317A27.439,27.439,0,0,0,382,194.731c.247-5.487.192-11.825.412-18.712a23.22,23.22,0,0,1,0-2.387v-.741L426.78,152.78S429.222,188.53,405.517,218.436Z" transform="translate(-141.568 11.325)" fill="#2776ce"/>
      <path id="Path_534" data-name="Path 534" d="M407.944,119.949a28.919,28.919,0,0,1-17.093,17.093,94.546,94.546,0,0,1-1.591-10.975l10.975-9.767,7.326,1.564C407.752,118.55,407.752,119.263,407.944,119.949Z" transform="translate(-124.598 -52.284)" fill="#eb8d5a"/>
      <path id="Path_535" data-name="Path 535" d="M391.251,144.483s23.349,2.744,24.693-11.935,5.487-24.062-9.466-26.339-18.3,2.963-19.974,7.71S385.215,143.441,391.251,144.483Z" transform="translate(-130.897 -70.837)" fill="#fa9960"/>
      <path id="Path_536" data-name="Path 536" d="M416.568,139.509a24.007,24.007,0,0,0-22.745-21.373c-14.569-1.372-6.448-13.91-4.884-15.886,0,0,11.167,1.509,22.608,3.4C435.555,109.63,418.928,136.491,416.568,139.509Z" transform="translate(-131.549 -76.782)" fill="#0d458d"/>
      <path id="Path_537" data-name="Path 537" d="M424.764,196.931l-57.891,1.235L350.41,147.49l-2.03.686,17.395,53.556,59.071-1.262Z" transform="translate(-195.879 2.101)" fill="#2776ce"/>
      <path id="Path_538" data-name="Path 538" d="M395.31,164.34s-9.164,3.457-15.365,2.332-16.215,2.963-17.614,5.323-.713,3.183,2.332,3.622,14.048,3.731,20.687.357a55.641,55.641,0,0,1,15.694-4.335Z" transform="translate(-172.764 31.482)" fill="#fa9960"/>
      <path id="Path_539" data-name="Path 539" d="M450.764,136.771s-2.25,76.521-19.041,85.218c-8.231,4.308-45.737,16.078-56.986,18.108,0,0-3.018-1.948-3.347-11.194,0,0,38.411-19.206,43.268-27.793,7.161-12.868-10.673-48.124-1.262-60.5S440.174,121.462,450.764,136.771Z" transform="translate(-155.758 -31.984)" fill="#5e9af2"/>
    </g>
  </g>
</svg>
